<?xml version="1.0" encoding="utf-8"?>
<!-- Generator: Adobe Illustrator 23.0.5, SVG Export Plug-In . SVG Version: 6.00 Build 0)  -->
<svg version="1.1" id="Layer_1" xmlns="http://www.w3.org/2000/svg" xmlns:xlink="http://www.w3.org/1999/xlink" x="0px" y="0px"
	 viewBox="0 0 299.6 420.8" style="enable-background:new 0 0 299.6 420.8;" xml:space="preserve">
<style type="text/css">
	.st0{fill:#00618A;stroke:#FFFFFF;stroke-width:2;stroke-linecap:round;stroke-linejoin:round;}
</style>
<title>Kurunegala</title>
<path id="LKA2461" class="st0" d="M265.6,171.2l-2,7.2l1.1,7.9l3.9,2.2l3.4,0.9l3.1,6.9l4.4,7.4l3,7.7l0.1,7.7l1.6,1.1l2.3,3.2
	l1.3,14.9l2.4,13.8l8.1,7.9l-0.2,5.2l-1.3,5.3l0.1,4.1l-1.6,3.8l-6.2,5.7l-1.1,9.4l4.4,9l2.7,4.4l2.2,4.7l1.3,5.6l-0.9,5.4l-2.5,3.3
	l-0.2,4.6l-5.3,2.5l-5.2,1.4l3.5,5.6l2.7,6.1l-4.8,2.2l-6.3-1.1l-6.5,3.7l0.7,4.9l-0.7,4.7l-7.5-0.6l-6.9-4.9h-6.3l-1.4,8.9
	l-1.9,2.4l-1.5,2.6l0.3,3l0.8,2l-8,2.4l-9.1-1l-4.1-8.6l-6.4-6.7l-10.6-1.4l-9.7,3.8l-1.5,8.5l0.5,9.1l-1.5,5.3l-3.2,4.3l-4.7,0.2
	l-21.6,4.8l-10.3,4.9l-9.7,6.9l-9.2,8.2l-9,5.2l-7.7-5.6l-11-12.6l-2.5-3.7l-1.3-3.8l-4-4.4l-12.3,2.2L81,399.6l-12.8,3.8L56,394.8
	l-10.6,0.4l-16.8,13.3l-9.4,3.7l-1.1-26.6L1.8,297.8L1,282.4l0.9-15.3l4.7-12.2l6.7-11.4l1.6-5l3.2-4.4l6.4-1.7l5.2-2.9l-2.4-4
	l-5.5-1.4l2.3-5.8l3-5.2l5.7-1.8l6.3-0.5l4.8-2l3.1-4.1l-1.6-4.7l-2.4-4.9l1.4-11.8l4.2-10.8l0.8-5.3l1.6-4.8l5.7-3.1l5.4-3.7
	l1.3-4.8l2.1-4.5l9.4-4.9l1.7-4.1l0.7-4.5l2.7-6.2l6.5-3l-0.8,1.5l2.8-0.8l3.4-3.6l0.1-5.4l2.5-4.3l9.2,5.2l5.6-4.3L104,102l2.5-5.3
	l3.4-5l0.4-10.2l-0.3-12l1.7-5.8l1.1-5.3l-5.3-3.4l-6-2.1l-4.2-8l-1.6-8.7L91,18.5l0.2-9L90.4,1l9.6,5.4l40.7,18.7l8.7,2.2l8.5,3.4
	l6.6,4.8l8.2,1.2l14.6,5.6l13.3,10.9l7.2,7.3l8,4.9l8.3-0.3l6.7,5.5l0.1,5.6l-0.8,5.6l1.3,9.6l-0.6,8.1l0.8,7.7l6.2,2.6l7.1,0.5
	l3.7,6.2l1.1,7.5l4.2,10.3l2.2,10.6l-1.7,15.4L265.6,171.2L265.6,171.2z"/>
</svg>
