<?xml version="1.0" encoding="utf-8"?>
<!-- Generator: Adobe Illustrator 23.0.5, SVG Export Plug-In . SVG Version: 6.00 Build 0)  -->
<svg version="1.1" id="Layer_1" xmlns="http://www.w3.org/2000/svg" xmlns:xlink="http://www.w3.org/1999/xlink" x="0px" y="0px"
	 viewBox="0 0 203.6 582.1" style="enable-background:new 0 0 203.6 582.1;" xml:space="preserve">
<style type="text/css">
	.st0{fill:#00618A;stroke:#FFFFFF;stroke-width:2;stroke-linecap:round;stroke-linejoin:round;}
</style>
<title>Puttalam</title>
<path id="LKA2462" class="st0" d="M149.3,21.1l2.5,18.5l-8.1,17.1L130,68l-0.6,3.1l-2.1,4l-7.4,3.5l-4.8,11l6.5,12.6l11,45l2.7,7.9
	h9.2l7.4-3.4l7.9,5.9l9-0.3l6.5,5.2l4.9,6.4l0.8,8.5l-0.2,9l4.7,17.7l1.6,8.7l4.2,8l6,2.1l5.3,3.4l-1.1,5.3l-1.7,5.8l0.3,12
	l-0.4,10.2l-3.4,5l-2.5,5.3l5.3,9.9l-5.6,4.3l-9.2-5.2l-2.5,4.3l-0.1,5.4l-3.4,3.6l-2.8,0.8l0.8-1.5l-6.5,3l-2.7,6.2l-0.7,4.5
	l-1.7,4.1l-9.4,4.9l-2.1,4.5l-1.3,4.8l-5.4,3.7l-5.7,3.1l-1.6,4.8l-0.8,5.3l-4.2,10.8l-1.4,11.8l2.4,4.9l1.6,4.7l-3.1,4.1l-4.8,2
	l-6.3,0.5l-5.7,1.8l-3,5.2l-2.3,5.8l5.5,1.4l2.4,4l-5.2,2.9l-6.4,1.7l-3.2,4.4l-1.6,5l-6.7,11.4L91.7,435l-0.9,15.3l0.8,15.4
	l16.3,87.8l1.1,26.6l-7.7-3l-6.5,4l-5.2-0.6l-3.4-3.9l-8.6,1.1l-8.2,2.2l-10.5-0.5L39.8,439.5l-2.7-5.8l1.8-1.9l1.4-0.2l3.2,2.1
	l0.7-7.7l2.2-8.9l1.1-8.6l-2.5-6.7l-3.4-6.2l-1.3-8.1l0.1-16.5l-10.2-50l-1.2-5.8l-5.2-10.9l-4.5-23.1L12.1,263L1,212.6v-14.3
	l1.8,0.9l1.2,2.2l1.6-8.3l-2.4-26.4l-2.2-8l7.2-4.8l6.9-8.9l5-10.1l1.9-8.5l2.1-5.5l13-20.7l-6.7,15.9L22,131l2.3,4.5l3.3,3.3
	l4.3,1.7l5.2-0.1l-4.3,12.2l-4.4,8.9l-2,1.5l-2,0.2l-1.6,1.3l-0.8,4.7l0.4,10.6l-0.4,3.3L14.6,207l0.8,13.3l10,11.8l-8.9,18.6
	l14.1,10.2l20.5,1.6l10.4-7.4l-2-7.9l-4.6-8.6l-5.5-6.9l-4.4-2.9l-1.3-4.8l14.9-28.4l-0.6-5.2l-1.9-3.8l-2.2-3.2l-1.4-3.3l-0.3-5.4
	l0.5-9.3l-0.2-3.9l-1.4-3.9l-1.6-1.5l-0.9-1.8l0.9-5l2.1-4.2l5.8-7.6l1.2-5l0.9-9.3l4.1-18.7l4.2-43.7l2.7-4.9l3-2.5l2.2-2.9
	l0.9-6.6V25.3l2.6-9.1l6-5.9l7.1-4.8L96.4,1l5.1,3l11.6,4.4l13.1,1.3l11.3,4.8L149.3,21.1z"/>
</svg>
