<svg id="Layer_1" data-name="Layer 1" xmlns="http://www.w3.org/2000/svg" viewBox="0 0 167 120.3"><defs><style>.cls-1{fill:#1dbafe;stroke:#fff;stroke-linecap:round;stroke-linejoin:round;stroke-width:2px;}</style></defs><title>Colombo</title><path id="LKA2470" class="cls-1" d="M256.8,1302l-5.7,6.9-4.8,7.6-1.9,6.2-2.3,5.3,10.9,11.6-9.7,8.7-12.9-3-14.4,6.1,2.9,12.9-8.7-2.2-5.7-13.4-2.3-1.3-2.8-.5-5.4,6.3-6.9,3.5-4.9-2.3-4.9.6-17,14.6-4.9,2.2-5.1,1.2-12.8,4.8-20.4-12.7-.5,7.4,2.7,8.3,1.4,5.7.1,5.5-.9,1.5-16.5-42.4-6-33.6-.6-3.3v-32.1l.5-1.2,9.6,3.7,7.3,3.8,7.8,1.9,3.4-1.9,4.1-1.6,21.9,6.4,7.6-1.5,7.6-.6,6,3.7,5.2,4.9,5,2.8,5.1,2,7.8.9,9.5-.5.5-8.7,1.8-8.4,7-7,8.7-4,12,1.2,8-2.8,9.6.6,7.6,3.9,1.4,8.1-5.9,5.5.6,4.3.3,4.4Z" transform="translate(-95.8 -1274.2)"/></svg>