<svg id="Layer_1" data-name="Layer 1" xmlns="http://www.w3.org/2000/svg" viewBox="0 0 175.9 186.8"><defs><style>.cls-1{fill:#1dbafe;stroke:#fff;stroke-linecap:round;stroke-linejoin:round;stroke-width:2px;}</style></defs><title>Gampaha</title><path id="LKA2471" class="cls-1" d="M249.4,1150.7l.8,6-4.4,3.4-1.1,15.3-5.8,5.4-7,3.7-1.9,12.6,5.4,11.1,10.8-2.5,9.3,2.7-3.3,7.6-6.4,4.4-5.6,13-2.3,12.9,6.6,21.2.1,4-1.4,3.7-8,2.8-12-1.2-8.7,4-7,7-1.8,8.4-.5,8.7-9.5.5-7.8-.9-5.1-2-5-2.8-5.2-4.9-6-3.7-7.6.6-7.6,1.5-21.9-6.4-4.1,1.6-3.4,1.9-7.8-1.9-7.3-3.8-9.6-3.7,4.4-10.6,1.2-5-.1-5.3-21.2-75.2,3-11-.2,6.8,1.7,4.2,2.3,3.3,2.1,3.9,4.3,14.9,2,3.6h2.8l.6-4.2,1.3-1.8,1.4-.1-.1-13.7-1-5.9-2.2-4.9-2.1-1.5-5.8-1.3-2.6-1.7-1.9-3.8.7-3.6,1.7-3.2.9-3.2-2.6-19.2,10.5.5,8.2-2.2,8.6-1.1,3.4,3.9,5.2.6,6.5-4,7.7,3,9.4-3.7,16.8-13.3,10.6-.4,12.2,8.6,12.8-3.8,10.8-7.7,12.3-2.2,4,4.4,1.3,3.8,2.5,3.7,11,12.6,7.7,5.6Z" transform="translate(-80.6 -1119.6)"/></svg>