<svg id="Layer_1" data-name="Layer 1" xmlns="http://www.w3.org/2000/svg" viewBox="0 0 218 222.4"><defs><style>.cls-1{fill:#1dbafe;stroke:#fff;stroke-linecap:round;stroke-linejoin:round;stroke-width:2px;}</style></defs><title>Kaluthara</title><path id="LKA2472" class="cls-1" d="M243.3,1348.3l1.4,9.2,7.8,20.4-.7,7.1,2.9,8.4,4.2,8.9,13.5,13.1,2.6,12.9,4.9,4.6,6.2,2.4,9.8,9,6.4,12.3-6.6,2.5,2.3,7.6,18.7,26.3,15.9,27.8-15.7,3.6-15.5,9.6-8.1,3.6v9.5l3.3,9.7-.9,8.9-6.9-5.5-6.8-6.6-13-10.1-13.4,1.2-12.1,6.8-19.1-3.7-7.4-4.9-7.1-6.3-8.8-3.8-8-1.7-16.3-7.5-2.2-3.8-3.2-3.1-4.5,1.8-2.9,1.9-2.5-2.3-2.4-3.4-3.1-.7-1.8-7.6-2.9-1.9-2-1.7-1.2-2.5.5-2.6,2.2-.6,2.2.2h1.2l-3.4-23.3-.3-1.9-9.2-23.7-21.4-54.9.9-1.5-.1-5.5-1.4-5.7-2.7-8.3.5-7.4,20.4,12.7,12.8-4.8,5.1-1.2,4.9-2.2,17-14.6,4.9-.6,4.9,2.3,6.9-3.5,5.4-6.3,2.8.5,2.3,1.3,5.7,13.4,8.7,2.2-2.9-12.9,14.4-6.1,12.9,3Z" transform="translate(-115.6 -1344.3)"/></svg>