<?xml version="1.0" standalone="no"?>
<!DOCTYPE svg PUBLIC "-//W3C//DTD SVG 20010904//EN"
 "http://www.w3.org/TR/2001/REC-SVG-20010904/DTD/svg10.dtd">
<svg version="1.0" xmlns="http://www.w3.org/2000/svg"
 width="1280.000000pt" height="1186.000000pt" viewBox="0 0 1280.000000 1186.000000"
 preserveAspectRatio="xMidYMid meet">
<metadata>
Created by potrace 1.15, written by Peter Selinger 2001-2017
</metadata>
<g transform="translate(0.000000,1186.000000) scale(0.100000,-0.100000)"
fill="#000000" stroke="none">
<path d="M1300 11849 c-350 -40 -711 -234 -940 -504 -173 -204 -282 -432 -337
-700 -17 -86 -18 -280 -18 -4720 l0 -4630 23 -102 c133 -600 573 -1039 1170
-1165 l107 -23 4625 0 c4435 0 4629 1 4715 18 360 74 666 256 885 529 180 224
289 482 320 754 8 71 10 873 8 2865 l-3 2766 -735 -646 -735 -646 -3 -2083 -2
-2082 -4448 2 -4447 3 -3 4448 -2 4447 4450 0 4449 0 3 -125 3 -126 612 537
613 536 -22 32 c-54 77 -166 201 -241 264 -230 195 -504 316 -792 351 -110 13
-9139 13 -9255 0z"/>
<path d="M10489 9332 c-525 -461 -1762 -1548 -2749 -2415 -987 -867 -1798
-1577 -1802 -1577 -4 0 -431 483 -949 1073 -518 589 -949 1080 -959 1090 -18
20 79 102 -1158 -985 -199 -175 -362 -322 -362 -326 0 -5 502 -579 1116 -1277
614 -699 1348 -1534 1632 -1857 l515 -587 36 31 c20 18 461 405 981 862 1383
1215 4327 3801 5328 4680 l682 600 -23 25 c-13 14 -315 358 -671 764 -356 405
-651 737 -655 737 -4 0 -437 -377 -962 -838z"/>
</g>
</svg>
