<?xml version="1.0" encoding="utf-8"?>
<!-- Generator: Adobe Illustrator 23.0.5, SVG Export Plug-In . SVG Version: 6.00 Build 0)  -->
<svg version="1.1" id="Layer_1" xmlns="http://www.w3.org/2000/svg" xmlns:xlink="http://www.w3.org/1999/xlink" x="0px" y="0px"
	 viewBox="0 0 218.5 479.8" style="enable-background:new 0 0 218.5 479.8;" xml:space="preserve">
<style type="text/css">
	.st0{fill:#00618A;stroke:#FFFFFF;stroke-width:2;stroke-linecap:round;stroke-linejoin:round;}
</style>
<title>Badulla</title>
<path id="LKA2467" class="st0" d="M217.5,151.7l-17.2,4.1v9.2l-3.4,8.4l-12.1,15.3l-4,6.9l-7.4,3.1l-6.1-6.7l-7.3-0.9l-5.2,7.9
	l-1.3,9l5.5,7.1l6.8,6.7l4.4,9.2l5.2,5.4l16.3-4.3l4.7,6.1l2.4,2.1l3.3,4l2.3,6l1.2,6.2v8.3l-2.1,8l-1.6,12.3l-2.4,4.9l-3,4.6
	l-1.1,6.9l-2.3,6.4l-5.7,1.3l-4.4-1.9l-2.7,2.7l-2,3.5l-4.4,5.7l-5.6,4.5l-11.3,3.1l-9.5,5.3l10.8,15l-12.8,4l-3.8,7.4l-15,1.3
	l-1.1,9.4l0.9,9.5l-3.7,8.1l1.7,5.8l7.7,2.1l0.6,7.8l-6.6,10.2l-0.9,6.6l0.1,6.7l4.1,12.4l6.6,10.4l-9.2,3.3l-1.4,10.5l-4.8-2.3
	l-4.7-3.1l-6.3,9.8l-1.7,11.8l-3.8-6.2l-5.1-6.3l-2-14.2l-3-1.8l-3.1-1.5l-3-9.7l-4.1-9.2l-3.5-0.7l-3.4-1.8l-2.1-7.7l-3.5-5.3
	l-5.2-0.3l-8.1,0.4l-9,6.7l-10.6,4.3l-10.1-1.9l-6.8-5.5l-4.6-7.4l2.1-5.8l11.9-5.5l1.7-1.7l1.4-3.4l1.1-4.2l-7.6-2.4l-6.1-6.6
	l-3.2,1.3L15,384l-1.2-16.4l8.4-2.1l4.5-6.4l-4.1-2l-4-2.6l6.5-10.6l-1.8-3l-2.2-2.8l-2.5-6.8l-3-6.2L1.5,318L1,310.9l8-0.4l8.3,0.5
	l5.9-6.9l2.2-8.8l7-6.4l7.9-3.8l16.8-3.7l9.8-14.6l2-8.7l4-7.8l3.6-3.3l2.9-3.7l1.4-3.3l-0.6-3.1l-2.4-7.9l2.1-4.1l3-3.7l-1.6-2.3
	l-2-2.4l-0.9-3.7l1-4.1l-3.3-11.1l0.3-8l5.6-3.4l9.5-2.7l11.9-11.1l0.8-14.5l-9.7-32.2l-3.9-67.3l-2.1-36.5L92.7,1l1.2,1.2l6.7,4.1
	l2.9,6.3l0.6,7.3l3.5,10.7l10.9,18.2l8-2.9l4.4-1l5.4-2l9.4-8.8L167.4,22l19.6,4.2l1.7,22.3L184,70.2l-2.4,4.6l-1.3,4l1.4,5.5
	l1.7,5.5l2.9,19.6l4.9,10.5l6.6,6.5l3.9-0.9l5.4,1l1.8,4l3.1,5.2l3.9,8L217.5,151.7L217.5,151.7z"/>
</svg>
