<?xml version="1.0" encoding="utf-8"?>
<!-- Generator: Adobe Illustrator 23.0.5, SVG Export Plug-In . SVG Version: 6.00 Build 0)  -->
<svg version="1.1" id="Layer_1" xmlns="http://www.w3.org/2000/svg" xmlns:xlink="http://www.w3.org/1999/xlink" x="0px" y="0px"
	 viewBox="0 0 357.4 518.5" style="enable-background:new 0 0 357.4 518.5;" xml:space="preserve">
<style type="text/css">
	.st0{fill:#00618A;stroke:#FFFFFF;stroke-width:2;stroke-linecap:round;stroke-linejoin:round;}
</style>
<title>Monaragala</title>
<path id="LKA2468" class="st0" d="M344.9,391.7l-7.9,9.2l-11.9,2.2l-9.3,7.1l-8,7.8l-10.5,4.7l-8.8,7l0.2,7.5l2.3,6l-1.9,3.1l-2,2.8
	l0.2,3.6v3.9l-5.7,9.4l-12.3-2.8l-11.8,4.3l-3.9-0.5l-1.1-1.3l-4.8,3.5l-26.3,10.2l-12.9,3.4l-6.7,2.8l-4.4,4.4l-12.1,6.6l-11-4.6
	l-6.8-11.5l-8.2-10.8l-5.6,0.6l-4,2.9l-4.8,0.2l-4.3-0.6l-3.4-8.2l-7.6-2.7l-10.9-1.4l-11.1,0.1l-4.2,4.8l-5.4-3.9v5.9l-3.6,5.2
	l-6,0.4h-5.6l-2.1,10.1l4.2,9.9l-9.5,7.3l-12.5,4.1l-11.2,6l-10.8,7.1l-3.5-10.3l-4.2-8.1l-8.1-5.7l-8.4-4.6l-6.3-8.3L5.5,471
	l-0.4-27.5l-2.8-7L1,429.2l6.7-12.7l8.3-11.9l4.4-19.2l4.2-9.9l8.1-9.7l4.5-11.5l7.3-11l5.2,0.3l3.5,5.3l2.1,7.7l3.4,1.8l3.5,0.7
	l4.1,9.2l3,9.7l3.1,1.5l3,1.8l2,14.2l5.1,6.3l3.8,6.2l1.7-11.8l6.3-9.8l4.7,3.1l4.8,2.3l1.4-10.5l9.2-3.3l-6.6-10.4l-4.1-12.4
	l-0.1-6.7l0.9-6.6l6.6-10.2l-0.6-7.8l-7.7-2.1l-1.7-5.8l3.7-8.1l-0.9-9.5l1.1-9.4l15-1.3l3.8-7.4l12.8-4l-10.8-15l9.5-5.3l11.3-3.1
	l5.6-4.5l4.4-5.7l2-3.5l2.7-2.7l4.4,1.9l5.7-1.3l2.3-6.4l1.1-6.9l3-4.6l2.4-4.9l1.6-12.3l2.1-8v-8.3l-1.2-6.2l-2.3-6l-3.3-4
	l-2.4-2.1l-4.7-6.1l-16.3,4.3l-5.2-5.4l-4.4-9.2l-6.8-6.7l-5.5-7.1l1.3-9l5.2-7.9l7.3,0.9l6.1,6.7l7.4-3.1l4-6.9l12.1-15.3l3.4-8.4
	V85l17.2-4.1l3.5,8.6l3.8,7.2l9-3.1l8.2-6L218,71l-0.1-17.1l11,0.5l8.9-5l2.1-3.1l3.1-3.7l2-4.4l-0.5-5.3l-2.4-5.2l-0.1-5.8l4.5-0.4
	l6.1-1.6l3-4.8l1.7-4.1l4.8-2.2l5.4-1.9l11-5.9l8.7,2.4l-6.5,10.1l2.8,1.7l2.9,0.5l-0.9,6l5.3,23.5l-0.7,10.6l1.8,8.6l9.8,8.5
	l6.1,10.8l1.3,9.6l9.6,13.3l-7.2,5.7l-9.2,10.9l-5.1,13.8l5.7,10.4l1.7,6.9l3.5,6.1l3.5,1.6h3.3l2.8,1.6l2.2,2.1l15.8,4l13.1,7.9
	l-0.9,8.4l-2.1,8.8l3.1,8.5v8.6l5.3,7.7l2.2,8.8L344.9,391.7L344.9,391.7z"/>
</svg>
