<svg id="Layer_1" data-name="Layer 1" xmlns="http://www.w3.org/2000/svg" viewBox="0 0 400.6 549.3"><defs><style>.cls-1{fill:#1dbafe;stroke:#fff;stroke-linecap:round;stroke-linejoin:round;stroke-width:2px;}</style></defs><title>Ampara</title><path id="LKA2451" class="cls-1" d="M945.8,1059.9l.5,1.8,3.6.8,3.5-4.6h2.8l3.4,18-.1,6.6h3l.4-6.4,1.1-6.2,1.9-5.2,2.7-3.8v-3l-1.2-3.5.8-1.4,2.4,1,4,3.9,1.3,3.5,1,9.4,6.8,10.9,11.1,37.9-2.1,104.7,1.1,7.1,4.5,15.7.7,9.3-2.5,17.7-20.4,70.7-1.1,7.3-.4,9.6-1.6,8-6.3,12.4-1.4,5.6-2.5,7.6L950.2,1415l3,10.9-4.9,12.8-28,44.5-4-1.3-10.7-3.3-7.4-8.4-5.6-.8-5.1-.4-13.2-16.2,11.5-163.3-2.2-8.8-5.3-7.7v-8.6l-3.1-8.5,2.1-8.8.9-8.4-13.1-7.9-15.8-4-2.2-2.1-2.8-1.6H841l-3.5-1.6-3.5-6.1-1.7-6.9-5.7-10.4,5.1-13.8,9.2-10.9,7.2-5.7-9.6-13.3-1.3-9.6-6.1-10.8-9.8-8.5-1.8-8.6.7-10.6-5.3-23.5.9-6-2.9-.5-2.8-1.7,6.5-10.1-8.7-2.4-11,5.9-5.4,1.9-4.8,2.2-1.7,4.1-3,4.8-6.1,1.6-4.5.4.1,5.8,2.4,5.2.5,5.3-2,4.4-3.1,3.7-2.1,3.1-8.9,5-11-.5.1,17.1,2.3,16.6-8.2,6-9,3.1-3.8-7.2-3.5-8.6-1.6-8-3.9-8-3.1-5.2-1.8-4-5.4-1-3.9.9-6.6-6.5-4.9-10.5-2.9-19.6-1.7-5.5-1.4-5.5,1.3-4,2.4-4.6,4.7-21.7-1.7-22.3-19.6-4.2-21.7,12.1-9.4,8.8-5.4,2-4.4,1-8,2.9-10.9-18.2-3.5-10.7-.6-7.3-2.9-6.3-6.7-4.1-1.2-1.2,4.3-21.1-1-8.6-3.2-10.1.3-7.4h8.3l16.5-1.6,8.1-1.4,16.1,6.2,13,13.1,21.4,6.6,10.4,6,8.6,1.1,1.1-4.6,2-5.3,2.9-2.9,2.4-4.8-1.4-10.6,2-10,12,2.4,14.2-.7,11.8,3.8,15.1,21.9,9.8,9.4,13.4,3.8,14,2.7-.6,13.4-4.3,12.9.8,7.5,4.1,6.7,13.9,8.3,7.5,7.3,29,5,29.4-3.2,10.4-5.8.2,11.2,3.4,10.9,1.3,25.3,3.3,7.2,15.4-15.4,9-7.2,20.5-3.4Z" transform="translate(-599.4 -934.9)"/></svg>