<svg id="Layer_1" data-name="Layer 1" xmlns="http://www.w3.org/2000/svg" viewBox="0 0 265.4 385.9"><defs><style>.cls-1{fill:#1dbafe;stroke:#fff;stroke-linecap:round;stroke-linejoin:round;stroke-width:2px;}</style></defs><title>Batticaloa</title><path id="LKA2452" class="cls-1" d="M969.1,1046.4l-6.6,5.4-6.2-4.9-2.8-2.9-.6-4.5,1.9-28.9-1.3-9.7-4.8-4.2-1.9-3.9L932.1,971l-.8-4.7-3.8-8.1-1.5-4.4.2-4.6,1.4-4.1.6-4.3-2.2-5.2,5.7,5.5,5.4,12.9,4,5.9,5.1,13.7,15.7,25,7.5,38.9-.3,8.9Zm-23.3,13.5-20.5,3.4-9,7.2-15.4,15.4-3.3-7.2-1.3-25.3-3.4-10.9-.2-11.2-10.4,5.8-29.4,3.2-29-5-7.5-7.3-13.9-8.3-4.1-6.7-.8-7.5,4.3-12.9.6-13.4-14-2.7-13.4-3.8-9.8-9.4-15.1-21.9-11.8-3.8-14.2.7-12-2.4L706,901.4l3.9-34.3,3.3-13,9.9-6.7,12.6-1.8,16.1,2.2,4-.3-3.6-16.7-7.4-16.1-3.3-16.4,3.6-70.4-2.3-23.3,7.3-2.6,39.7,4.2,10.5,35.9,3.5,20.3-8,11.1-5.1-21L784,733.9h-3.3l-.5,14.1.5,4.5-.6,1.1v2.3l.6,2.7,1.5,1.7,3.8,1.2.7,1.4,3.6,9.3,7.8,5.7,7.4-.6,2.6-9.6h2.7l3.6,6.5,3.6,16.1,3.7,6.2,5,5.4,3.1,5.3,5.5,12.6,2.1-2.2,2.9-2.1,1.3-2.1,1.9,4.2-1.9,2.2,2.5,3.8.2,2,2.3-1.8,4.5-2.2,2.3-1.8,2.3,5.6-.9,3.6-1.6,3.6.2,5.5,3.1,6,9,6.9,3.2,5.4-2,.1-4,2.6-2.6,9.8,5.2,15.2,9.1,10.5,9.4-1.7h3l3.1,9.3,4.6,7.6,19,19.9,6.2,9.8,1,8.6-9.8,3-4.5-3.1-10.9-13.9-5.6-4.9-7.4-2.7-6,.5-4.6,4.8-3.2,9.8,5.3,2.5,5.1.7,4.4-1.7,3.3-4.5,5.2,2,4.8,2.3,2.8,3.4-.7,4.8,11.7,11,4.6,5.3,4.9,8-2.3,2.7-.6,2.5.7,3.1,2.2,4.2,2.7-3.4-1.7-6.1,5.2,1.9,10.3,7.6,2.4,3.6,8.2,20.7-.5.9-2.6,11.3.5,1.4,2.1,4.3.5,1.8-1.8,3-3.1,2.5-1.9,2.7,2.2,4,2.2,2.8.8,2.5,1.3,2.6,3.3,2.9-4.8,3.4.4,1.6Z" transform="translate(-705 -701)"/></svg>