<svg id="Layer_1" data-name="Layer 1" xmlns="http://www.w3.org/2000/svg" viewBox="0 0 295.2 377"><defs><style>.cls-1{fill:#1dbafe;stroke:#fff;stroke-linecap:round;stroke-linejoin:round;stroke-width:2px;}</style></defs><title>Trincomalee</title><path id="LKA2454" class="cls-1" d="M789.8,706.2,750.1,702l-7.3,2.6H730.4l-4,4.4-2.9,5.3-3.4,2.5-3,2.7-2.8,11.6-2.3,4.3-6.2,14.7-11.1,2.5-2.1-.7-1.8-1.3,5.1-3.2,2.4-5.6-1.5-8.4.1-5.8-.6-5.7-3.2-4.4-5.6.4-7.8-4-7.1-5.5-7.3-4.2h-7.9L623.9,696l-18.6,1.8-5.6-5.6-1.8-9.3-6.8-5.3-7.1-2.8-5.2-7.6-6.6,1.9,9.6-34.3,1-5.6,1.8-5.4,5.5-5.4,6.3-4.1,3.6-6.6-3-6.8-5.1-4-3.9-5L581.7,577l-11.6-17.4-1.9-10.7-4.7-4.6-3.7-4.3-.4-9.1,6.9-16-3.4-9.4-8.2-17.9-.3-19.3,7.5-11,5.2-11.6-4.2-3.2-3.6-4.9-6.8-7.4-19.2-13.5L522,410.3l-12.9-.3-12.5,5.1,2-7.8,3.6-6.4,17.4-8.1,20.4-2.7,8.5-2.4,7.6-4.6,8.5-2.4,7-3.1.2,7,5.2,3.7-4.7,4.5-4.2,4.9,7,5.5,7.4-.5,6.2-5.8,4.5-8,3-7.3,16,19.4,14.1,24.4,5.8,6,8.1,2.4,6.5,5.2,9.5,23.1,4.9,5.3,10.9,4.9,5.5,11.7,6.2,23.3,1.1-4.3,1.4-1.6,2.4.5,4.3,2.4-1.2,4.3L704,522l4,6.7v8.1l-3.2,3.2-4.6,2.1L696,547l6.5-1.7,2.6-1.3,9.5,20.9,1.4,10.9-11,1.7,2.3-7.2-3-5.7-4.8-.9-3.5,7.7,1.2,6,3.1,4.2,1.7,4.6-3.3,6.8-7.4-5.7-7.6-4.7-7.8-1.8-7.3,3.1-5.7,7.7,2,4.1,6.8-1.1,9.2-7.6,6.3,6.7,5.7,8.1,7,6.8,9.7,2.8,20.3-.4,6.8-4.4-4.5-10.5,11.6-5.3,4.6-1.4,4.9.3,5.4,3.1,4.9,5.3,3.7,6.1,3.1,17.9,6.9,23,.4,12-5.6-3.9-5.8-11.9-5.2-2.5-.2,3.2,2.3,15.7,2.4,5.5,5.7,2.7h6l4.8,2.1,2.8,17.1,3.9,13.8,1,7.3Z" transform="translate(-495.6 -376.6)"/></svg>