<svg id="Layer_1" data-name="Layer 1" xmlns="http://www.w3.org/2000/svg" viewBox="0 0 218.5 479.8"><defs><style>.cls-1{fill:#1dbafe;stroke:#fff;stroke-linecap:round;stroke-linejoin:round;stroke-width:2px;}</style></defs><title>Badulla</title><path id="LKA2467" class="cls-1" d="M725.2,1142l-17.2,4.1v9.2l-3.4,8.4L692.5,1179l-4,6.9-7.4,3.1-6.1-6.7-7.3-.9-5.2,7.9-1.3,9,5.5,7.1,6.8,6.7,4.4,9.2,5.2,5.4,16.3-4.3,4.7,6.1,2.4,2.1,3.3,4,2.3,6,1.2,6.2v8.3l-2.1,8-1.6,12.3-2.4,4.9-3,4.6-1.1,6.9-2.3,6.4-5.7,1.3-4.4-1.9-2.7,2.7-2,3.5-4.4,5.7L676,1314l-11.3,3.1-9.5,5.3,10.8,15-12.8,4-3.8,7.4-15,1.3-1.1,9.4.9,9.5-3.7,8.1,1.7,5.8,7.7,2.1.6,7.8-6.6,10.2-.9,6.6.1,6.7,4.1,12.4,6.6,10.4-9.2,3.3-1.4,10.5-4.8-2.3-4.7-3.1-6.3,9.8-1.7,11.8-3.8-6.2-5.1-6.3-2-14.2-3-1.8-3.1-1.5-3-9.7-4.1-9.2-3.5-.7-3.4-1.8-2.1-7.7-3.5-5.3-5.2-.3-8.1.4-9,6.7-10.6,4.3-10.1-1.9-6.8-5.5-4.6-7.4,2.1-5.8,11.9-5.5,1.7-1.7,1.4-3.4,1.1-4.2-7.6-2.4-6.1-6.6-3.2,1.3-3.3,1.6-1.2-16.4,8.4-2.1,4.5-6.4-4.1-2-4-2.6,6.5-10.6-1.8-3-2.2-2.8-2.5-6.8-3-6.2-14.1-7.1-.5-7.1,8-.4,8.3.5,5.9-6.9,2.2-8.8,7-6.4,7.9-3.8,16.8-3.7,9.8-14.6,2-8.7,4-7.8,3.6-3.3,2.9-3.7,1.4-3.3-.6-3.1-2.4-7.9,2.1-4.1,3-3.7-1.6-2.3-2-2.4-.9-3.7,1-4.1-3.3-11.1.3-8,5.6-3.4,9.5-2.7,11.9-11.1.8-14.5-9.7-32.2-3.9-67.3-2.1-36.5,4.2-20.9,1.2,1.2,6.7,4.1,2.9,6.3.6,7.3,3.5,10.7,10.9,18.2,8-2.9,4.4-1,5.4-2,9.4-8.8,21.7-12.1,19.6,4.2,1.7,22.3-4.7,21.7-2.4,4.6-1.3,4,1.4,5.5,1.7,5.5,2.9,19.6,4.9,10.5,6.6,6.5,3.9-.9,5.4,1,1.8,4,3.1,5.2,3.9,8,1.6,8Z" transform="translate(-507.7 -990.3)"/></svg>