<svg id="Layer_1" data-name="Layer 1" xmlns="http://www.w3.org/2000/svg" viewBox="0 0 357.4 518.5"><defs><style>.cls-1{fill:#1dbafe;stroke:#fff;stroke-linecap:round;stroke-linejoin:round;stroke-width:2px;}</style></defs><title>Monaragala</title><path id="LKA2468" class="cls-1" d="M874.3,1452.8l-7.9,9.2-11.9,2.2-9.3,7.1-8,7.8-10.5,4.7-8.8,7,.2,7.5,2.3,6-1.9,3.1-2,2.8.2,3.6v3.9l-5.7,9.4-12.3-2.8-11.8,4.3-3.9-.5-1.1-1.3-4.8,3.5-26.3,10.2-12.9,3.4-6.7,2.8-4.4,4.4-12.1,6.6-11-4.6-6.8-11.5-8.2-10.8-5.6.6-4,2.9-4.8.2-4.3-.6-3.4-8.2L659,1523l-10.9-1.4-11.1.1-4.2,4.8-5.4-3.9v5.9l-3.6,5.2-6,.4h-5.6l-2.1,10.1,4.2,9.9-9.5,7.3-12.5,4.1-11.2,6-10.8,7.1-3.5-10.3-4.2-8.1-8.1-5.7-8.4-4.6-6.3-8.3-4.9-9.5-.4-27.5-2.8-7-1.3-7.3,6.7-12.7,8.3-11.9,4.4-19.2,4.2-9.9,8.1-9.7,4.5-11.5,7.3-11,5.2.3,3.5,5.3,2.1,7.7,3.4,1.8,3.5.7,4.1,9.2,3,9.7,3.1,1.5,3,1.8,2,14.2,5.1,6.3,3.8,6.2,1.7-11.8,6.3-9.8,4.7,3.1,4.8,2.3,1.4-10.5,9.2-3.3-6.6-10.4-4.1-12.4-.1-6.7.9-6.6,6.6-10.2-.6-7.8-7.7-2.1-1.7-5.8,3.7-8.1-.9-9.5,1.1-9.4,15-1.3,3.8-7.4,12.8-4-10.8-15,9.5-5.3L676,1314l5.6-4.5,4.4-5.7,2-3.5,2.7-2.7,4.4,1.9,5.7-1.3,2.3-6.4,1.1-6.9,3-4.6,2.4-4.9,1.6-12.3,2.1-8v-8.3l-1.2-6.2-2.3-6-3.3-4-2.4-2.1-4.7-6.1-16.3,4.3-5.2-5.4-4.4-9.2-6.8-6.7-5.5-7.1,1.3-9,5.2-7.9,7.3.9,6.1,6.7,7.4-3.1,4-6.9,12.1-15.3,3.4-8.4v-9.2l17.2-4.1,3.5,8.6,3.8,7.2,9-3.1,8.2-6-2.3-16.6-.1-17.1,11,.5,8.9-5,2.1-3.1,3.1-3.7,2-4.4-.5-5.3-2.4-5.2-.1-5.8,4.5-.4,6.1-1.6,3-4.8,1.7-4.1,4.8-2.2,5.4-1.9,11-5.9,8.7,2.4-6.5,10.1,2.8,1.7,2.9.5-.9,6,5.3,23.5-.7,10.6,1.8,8.6,9.8,8.5,6.1,10.8,1.3,9.6,9.6,13.3-7.2,5.7-9.2,10.9-5.1,13.8,5.7,10.4,1.7,6.9,3.5,6.1,3.5,1.6h3.3l2.8,1.6,2.2,2.1,15.8,4,13.1,7.9-.9,8.4-2.1,8.8,3.1,8.5v8.6l5.3,7.7,2.2,8.8-11.5,163.3Z" transform="translate(-529.4 -1061.1)"/></svg>