<svg id="Layer_1" data-name="Layer 1" xmlns="http://www.w3.org/2000/svg" viewBox="0 0 263.5 245.9"><defs><style>.cls-1{fill:#1dbafe;stroke:#fff;stroke-linecap:round;stroke-linejoin:round;stroke-width:2px;}</style></defs><title>kandy</title><path id="LKA2448" class="cls-1" d="M598.3,1048.7l3.9,67.3,9.7,32.2-.8,14.5-11.9,11.1-9.5,2.7-5.6,3.4-18.3-3.8-18.9,2.9-16.2-1.3-10.2-16.1-3.8-.4-4.6-1.7-6.3-8.5-7.7-6.9,1.4,12.9,4,16.7-8.9,15.2-28.5,33.7-7.5-2-8.7.2-12.8,8.9-9,2-15.9-2-10,8,3.6-1.1,3.4,1.5,7.8,14.4,6.6,6.2,5.2,7.2-5.3,14.9L414,1291l-12.9-7.7-19.8-29.5-12.6-1.1.2-8.9,3.2-6.8-3.2-5.6-6.7-16,5-4.7,15.3-2.5,7-7.5,4.8-.3,4.8-1.2,3.5-5.4,2.5-5.9-5.2-6.5-6.4-6.3-.1-6.6,1.1-7.9-5.3-6.5-11.3-6.3-3.7-2.6.7-8.6-19.1-16.8-5.4-13.6,9.1,1,8-2.4-.8-2-.3-3,1.5-2.6,1.9-2.4,1.4-8.9h6.3l6.9,4.9,7.5.6.7-4.7-.7-4.9,6.5-3.7,6.3,1.1,4.8-2.2-2.7-6.1-3.5-5.6,5.2-1.4,5.3-2.5,9.1,12.6,28,17.6,16.3,1,9.4-10.5-1.5-16.3,2.7-7,6.1-3.7,6.6,2.5,16.4,13.6,12.7-1.9,14-11.5,18.2.1,7.3-3.6,5.3,6.7,3.2-1.8,2.9-2.5,4.9-8.2,8.9-1.4,14,1.6Z" transform="translate(-349.4 -1046.1)"/></svg>