<svg id="Layer_1" data-name="Layer 1" xmlns="http://www.w3.org/2000/svg" viewBox="0 0 224.3 280.6"><defs><style>.cls-1{fill:#1dbafe;stroke:#fff;stroke-linecap:round;stroke-linejoin:round;stroke-width:2px;}</style></defs><title>Matale</title><path id="LKA2449" class="cls-1" d="M600.8,944.1l-.3,7.4,3.2,10.1,1,8.6-4.3,21.1-4.2,20.9,2.1,36.5-14-1.6-8.9,1.4-4.9,8.2-2.9,2.5-3.2,1.8-5.3-6.7-7.3,3.6-18.2-.1-14,11.5-12.7,1.9-16.4-13.6-6.6-2.5-6.1,3.7-2.7,7,1.5,16.3-9.4,10.5-16.3-1-28-17.6-9.1-12.6.2-4.6,2.5-3.3.9-5.4-1.3-5.6-2.2-4.7-2.7-4.4-4.4-9,1.1-9.4,6.2-5.7,1.6-3.8-.1-4.1,1.3-5.3.2-5.2L409,983l-2.4-13.8-1.3-14.9-2.3-3.2-1.6-1.1-.1-7.7-3-7.7-4.4-7.4-3.1-6.9-3.4-.9-3.9-2.2-1.1-7.9,2-7.2,9.4-7,14.9-5.5,7.8-9.5,7.1.3,5.3,3.5,6.6-4.6,3.2-5.4,3.1-2.1,2.9-1.7-.3-3.2-1-2,5.7-5.9,4.2-6.5-.1-8.3,2.5-7.1h4.4l3.3.9,2.6-1.8,8.6-9.1,5.7-5.1,8.4-4.2L498,814l3.8,3.8,6.2,6.9-.2,7.9,2.4,2.6,3.7,1.4,2.9-1.8.2-2.9,5.3-2.5,5.1,1.4,7,1.5,6.5,3.9-13.3,13.9-4.3,21.1-1.2,10.2-4.3,18-1.5,3.2-.8,3.3-12.8,2.8-3,12.3,6,27.1-.8,8.7,4.3,6.2,11.7,2.6,11.1-4.7,8.8-8,3.8,5.3,6.7,4.2,2-7.8,1-8,23.7,1.7,22.8-4.2Z" transform="translate(-381.4 -813)"/></svg>