<svg id="Layer_1" data-name="Layer 1" xmlns="http://www.w3.org/2000/svg" viewBox="0 0 237.7 232.7"><defs><style>.cls-1{fill:#1dbafe;stroke:#fff;stroke-linecap:round;stroke-linejoin:round;stroke-width:2px;}</style></defs><title>NuwaraEliya</title><path id="LKA2450" class="cls-1" d="M584.1,1179.9l-.3,8,3.3,11.1-1,4.1.9,3.7,2,2.4,1.6,2.3-3,3.7-2.1,4.1,2.4,7.9.6,3.1-1.4,3.3-2.9,3.7-3.6,3.3-4,7.8-2,8.7-9.8,14.6-16.8,3.7-7.9,3.8-7,6.4-2.2,8.8-5.9,6.9-8.3-.5-8,.4.5,7.1,14.1,7.1,3,6.2,2.5,6.8,2.2,2.8,1.8,3-6.5,10.6,4,2.6,4.1,2-4.5,6.4-8.4,2.1-25,13.1-13.8,1.9-14.6-.5-11,.9-9.3,1.5-24.3-3.3-22.9-5.1-10.8-.9-9-7,1.6-4.5,3.3-3.2-3-3.3.3-7.3,5.1-4.4-.7-6-3.4-11.7-10.2-7.6-12.9-4.2-3.8-12.8,3.1-16.6-2.8-2.9-2.5-3.4,2.4-3.3,3.4-1.1,6.1-5.4,3.9-6.3-1.4-.4-.6-1.4,12.6,1.1,19.8,29.5L414,1291l9.5-10.2,5.3-14.9-5.2-7.2-6.6-6.2-7.8-14.4-3.4-1.5-3.6,1.1,10-8,15.9,2,9-2,12.8-8.9,8.7-.2,7.5,2,28.5-33.7,8.9-15.2-4-16.7-1.4-12.9,7.7,6.9,6.3,8.5,4.6,1.7,3.8.4,10.2,16.1,16.2,1.3,18.9-2.9,18.3,3.8Z" transform="translate(-353.9 -1143.1)"/></svg>