<?xml version="1.0" encoding="utf-8"?>
<!-- Generator: Adobe Illustrator 23.0.5, SVG Export Plug-In . SVG Version: 6.00 Build 0)  -->
<svg version="1.1" id="Layer_1" xmlns="http://www.w3.org/2000/svg" xmlns:xlink="http://www.w3.org/1999/xlink" x="0px" y="0px"
	 viewBox="0 0 457.9 494.1" style="enable-background:new 0 0 457.9 494.1;" xml:space="preserve">
<style type="text/css">
	.st0{fill:#00618A;stroke:#FFFFFF;stroke-width:2;stroke-linecap:round;stroke-linejoin:round;}
</style>
<title>Anuradhapura</title>
<path id="LKA2455" class="st0" d="M429.1,260.1l-5.7,6l-3.3,7.9l-1.9,7.8l-5.6,3.3H393l-17.5,3.3l-6.5,17.1l-3.6,18.8l-6.4,16.8
	l-3,17.5l-0.7,15.5l8.8,7l-8.6,12.1l-0.6,11.8l-9.3,3.8l-8.4,4.2l-5.7,5.1l-8.6,9.1l-2.6,1.8l-3.3-0.9h-4.4l-2.5,7.1l0.1,8.3
	L306,450l-5.7,5.9l1,2l0.3,3.2l-2.9,1.7l-3.1,2.1l-3.2,5.4l-6.6,4.6l-5.3-3.5l-7.1-0.3l-7.8,9.5l-14.9,5.5l-9.4,7l-11.2-10.9
	l1.7-15.4l-2.2-10.6l-4.2-10.3l-1.1-7.5l-3.7-6.2l-7.1-0.5l-6.2-2.6l-0.8-7.7l0.6-8.1l-1.3-9.6l0.8-5.6l-0.1-5.6l-6.7-5.5l-8.3,0.3
	l-8-4.9l-7.2-7.3L163,364.2l-14.6-5.6l-8.2-1.2l-6.6-4.8l-8.5-3.4l-8.7-2.2l-40.7-18.7l-9.6-5.4l-4.9-6.4l-6.5-5.2l-9,0.3l-7.9-5.9
	l-7.4,3.4h-9.2l-2.7-7.9l-11-45L1,243.6l4.8-11l7.4-3.5l2.1-4l0.6-3.1l13.7-11.3l8.1-17.1l-2.5-18.5l3.6,1.8l4.3,0.5L44,136
	l-3.5-26.2l19.6,8.1h21.7l43-11.3l0.2,14.5l4.5,12.6l6.7,2.3l6.5,3l2.9,5.5l1.6,6.1l4.7,9.5l9.3,5l4.6,1.2l4.3,0.3l6.8-12.2l7.8-3.5
	l8.3-19.2l17.4-22.7l13.4-6.2l8.2,4.4l7.5,5.3l14-0.1l11.8-9l11.2-10.1l9.6-11.3l5.4-8.2l6.2-7.6l10.5-8.4l-3.7-11.6l-8.1-10.5
	l-11.5-4l-0.9-9.8l32.9-1.2l12.8-9l11.6-3.3l12.2-2.3L366,1l12.9,0.3l11.3,6.4l19.2,13.5l6.8,7.4l3.6,4.9l4.2,3.2l-5.2,11.6l-7.5,11
	l0.3,19.3l8.2,17.9l3.4,9.4l-6.9,16l0.4,9.1l3.7,4.3l4.7,4.6l1.9,10.7l11.6,17.4l6.3,14.9l3.9,5l5.1,4l3,6.8l-3.6,6.6l-6.3,4.1
	l-5.5,5.4l-1.8,5.4l-1,5.6L429.1,260.1L429.1,260.1z"/>
</svg>
