<?xml version="1.0" encoding="utf-8"?>
<!-- Generator: Adobe Illustrator 23.0.5, SVG Export Plug-In . SVG Version: 6.00 Build 0)  -->
<svg version="1.1" id="Layer_1" xmlns="http://www.w3.org/2000/svg" xmlns:xlink="http://www.w3.org/1999/xlink" x="0px" y="0px"
	 viewBox="0 0 259.8 308.9" style="enable-background:new 0 0 259.8 308.9;" xml:space="preserve">
<style type="text/css">
	.st0{fill:#00618A;stroke:#FFFFFF;stroke-width:2;stroke-linecap:round;stroke-linejoin:round;}
</style>
<title>Polonnaruwa</title>
<path id="LKA2453" class="st0" d="M245.8,38.4l2.3,23.3l-3.6,70.4l3.3,16.4l7.4,16.1l3.6,16.7l-4,0.3l-16.1-2.2l-12.6,1.8l-9.9,6.7
	l-3.3,13l-3.9,34.3l6.2,34.5l-2,10l1.4,10.6l-2.4,4.8l-2.9,2.9l-2,5.3l-1.1,4.6l-8.6-1.1l-10.4-6l-21.4-6.6l-13-13.1l-16.1-6.2
	l-8.1,1.4l-16.5,1.6h-8.3L81,282.1l-23.7-1.7l-1,8l-2,7.8l-6.7-4.2l-3.8-5.3l-8.8,8l-11.1,4.7l-11.7-2.6l-4.3-6.2l0.8-8.7l-6-27.1
	l3-12.3l12.8-2.8l0.8-3.3l1.5-3.2l4.3-18l1.2-10.2l4.3-21.1L43.9,170l-6.5-3.9l-7-1.5l-5.1-1.4l-5.3,2.5l-0.2,2.9l-2.9,1.8l-3.7-1.4
	l-2.4-2.6l0.2-7.9l-6.2-6.9L1,147.8L1.6,136l8.6-12.1l-8.8-7l0.7-15.5l3-17.5l6.4-16.8l3.6-18.8l6.5-17.1l17.5-3.3h19.6l5.6-3.3
	l1.9-7.8l3.3-7.9l5.7-6L81.8,1L87,8.6l7.1,2.8l6.8,5.3l1.8,9.3l5.6,5.6l18.6-1.8l33.5,8.2h7.9l7.3,4.2l7.1,5.5l7.8,4l5.6-0.4
	l3.2,4.4l0.6,5.7l-0.1,5.8l1.5,8.4l-2.4,5.6l-5.1,3.2l1.8,1.3l2.1,0.7l11.1-2.5l6.2-14.7l2.3-4.3l2.8-11.6l3-2.7l3.4-2.5l2.9-5.3
	l4-4.4L245.8,38.4z"/>
</svg>
