<svg id="Layer_1" data-name="Layer 1" xmlns="http://www.w3.org/2000/svg" viewBox="0 0 177.1 253"><defs><style>.cls-1{fill:#1dbafe;stroke:#fff;stroke-linecap:round;stroke-linejoin:round;stroke-width:2px;}</style></defs><title>Kegalla</title><path id="LKA2469" class="cls-1" d="M350.4,1106.2l5.4,13.6,19.1,16.8-.7,8.6,3.7,2.6,11.3,6.3,5.3,6.5-1.1,7.9.1,6.6,6.4,6.3,5.2,6.5-2.5,5.9-3.5,5.4-4.8,1.2-4.8.3-7,7.5-15.3,2.5-5,4.7,6.7,16,3.2,5.6-3.2,6.8-.2,8.9.6,1.4,1.4.4-3.9,6.3-6.1,5.4-3.4,1.1-2.4,3.3,2.5,3.4,2.8,2.9-3.1,16.6,3.8,12.8,12.9,4.2,10.2,7.6,3.4,11.7.7,6-5.1,4.4-8.8.3-8.7-1.2-12.2-4.1-9.5-5.4-6.7-.3-5.5.6-13.4,7.6-11.1-2.4-2.1-4.4-3.2-3.8-4.5,1-3.2,1.7-6.7-5.3-5.5-7-18.3-18.6-6.8,3.1-.3-4.4-.6-4.3,5.9-5.5-1.4-8.1-7.6-3.9-9.6-.6,1.4-3.7-.1-4-6.6-21.2,2.3-12.9,5.6-13,6.4-4.4,3.3-7.6-9.3-2.7-10.8,2.5-5.4-11.1,1.9-12.6,7-3.7,5.8-5.4,1.1-15.3,4.4-3.4-.8-6,9-5.2,9.2-8.2,9.7-6.9,10.3-4.9,21.6-4.8,4.7-.2,3.2-4.3,1.5-5.3-.5-9.1,1.5-8.5,9.7-3.8,10.6,1.4,6.4,6.7Z" transform="translate(-229 -1088.5)"/></svg>