<svg id="Layer_1" data-name="Layer 1" xmlns="http://www.w3.org/2000/svg" viewBox="0 0 342.4 310"><defs><style>.cls-1{fill:#1dbafe;stroke:#fff;stroke-linecap:round;stroke-linejoin:round;stroke-width:2px;}</style></defs><title>Ratnapura</title><path id="LKA2463" class="cls-1" d="M383,1340.2l-.3,7.3,3,3.3-3.3,3.2-1.6,4.5,9,7,10.8.9,22.9,5.1,24.3,3.3,9.3-1.5,11-.9,14.6.5,13.8-1.9,25-13.1,1.2,16.4,3.3-1.6,3.2-1.3,6.1,6.6,7.6,2.4-1.1,4.2-1.4,3.4-1.7,1.7-11.9,5.5-2.1,5.8,4.6,7.4,6.8,5.5,10.1,1.9,10.6-4.3,9-6.7,8.1-.4-7.3,11-4.5,11.5-8.1,9.7-4.2,9.9-4.4,19.2-8.3,11.9-6.7,12.7,1.3,7.3,2.8,7,.4,27.5,4.9,9.5,6.3,8.3,8.4,4.6,8.1,5.7,4.2,8.1,3.5,10.3,8.1,9.1,4.1,11.3-2.2,7.9-9.3-3.1-16.2-3.3-5.2-6-6.7-5.3-8.4.8-8.4,2.1-8.5-1.4-32.4-11.8-25.3-4.8v-4.2l2.4-2.4-5.7-4.2.4-4.2-5-6.1-10.6,1.8-7.9-1.4,2.9-8-6.4-11.7-19.4,2.5-7.5.1-3.1,7.2-8.7,2-8.6,1.2-3.8-5.5-7.1.3-13.7-6.8-6.6-.2-7.5-3-6-5.1-5.4-5.6L316.7,1493,298,1466.7l-2.3-7.6,6.6-2.5-6.4-12.3-9.8-9-6.2-2.4-4.9-4.6-2.6-12.9-13.5-13.1-4.2-8.9-2.9-8.4.7-7.1-7.8-20.4-1.4-9.2,9.7-8.7L242.1,1328l2.3-5.3,1.9-6.2,4.8-7.6,5.7-6.9,6.8-3.1,18.3,18.6,5.5,7,6.7,5.3,3.2-1.7,4.5-1,3.2,3.8,2.1,4.4,11.1,2.4,13.4-7.6,5.5-.6,6.7.3,9.5,5.4,12.2,4.1,8.7,1.2,8.8-.3Z" transform="translate(-241.1 -1297.9)"/></svg>