<svg id="Layer_1" data-name="Layer 1" xmlns="http://www.w3.org/2000/svg" viewBox="0 0 299.6 420.8"><defs><style>.cls-1{fill:#1dbafe;stroke:#fff;stroke-linecap:round;stroke-linejoin:round;stroke-width:2px;}</style></defs><title>Kurunegala</title><path id="LKA2461" class="cls-1" d="M384.4,902.1l-2,7.2,1.1,7.9,3.9,2.2,3.4.9,3.1,6.9,4.4,7.4,3,7.7.1,7.7,1.6,1.1,2.3,3.2,1.3,14.9L409,983l8.1,7.9-.2,5.2-1.3,5.3.1,4.1-1.6,3.8-6.2,5.7-1.1,9.4,4.4,9,2.7,4.4,2.2,4.7,1.3,5.6-.9,5.4-2.5,3.3-.2,4.6-5.3,2.5-5.2,1.4,3.5,5.6,2.7,6.1-4.8,2.2-6.3-1.1-6.5,3.7.7,4.9-.7,4.7-7.5-.6-6.9-4.9h-6.3l-1.4,8.9-1.9,2.4-1.5,2.6.3,3,.8,2-8,2.4-9.1-1-4.1-8.6-6.4-6.7-10.6-1.4-9.7,3.8-1.5,8.5.5,9.1-1.5,5.3-3.2,4.3-4.7.2-21.6,4.8-10.3,4.9-9.7,6.9-9.2,8.2-9,5.2-7.7-5.6-11-12.6-2.5-3.7-1.3-3.8-4-4.4-12.3,2.2-10.8,7.7-12.8,3.8-12.2-8.6-10.6.4-16.8,13.3-9.4,3.7-1.1-26.6-16.3-87.8-.8-15.4.9-15.3,4.7-12.2,6.7-11.4,1.6-5,3.2-4.4,6.4-1.7,5.2-2.9-2.4-4-5.5-1.4,2.3-5.8,3-5.2,5.7-1.8,6.3-.5,4.8-2,3.1-4.1-1.6-4.7-2.4-4.9,1.4-11.8,4.2-10.8.8-5.3,1.6-4.8,5.7-3.1,5.4-3.7,1.3-4.8,2.1-4.5,9.4-4.9,1.7-4.1.7-4.5,2.7-6.2,6.5-3-.8,1.5,2.8-.8,3.4-3.6.1-5.4,2.5-4.3,9.2,5.2,5.6-4.3-5.3-9.9,2.5-5.3,3.4-5,.4-10.2-.3-12,1.7-5.8,1.1-5.3-5.3-3.4-6-2.1-4.2-8-1.6-8.7-4.7-17.7.2-9-.8-8.5,9.6,5.4L259.5,756l8.7,2.2,8.5,3.4,6.6,4.8,8.2,1.2,14.6,5.6,13.3,10.9,7.2,7.3,8,4.9,8.3-.3,6.7,5.5.1,5.6-.8,5.6,1.3,9.6-.6,8.1.8,7.7,6.2,2.6,7.1.5,3.7,6.2,1.1,7.5,4.2,10.3,2.2,10.6-1.7,15.4,11.2,10.9Z" transform="translate(-118.8 -730.9)"/></svg>