<svg id="Layer_1" data-name="Layer 1" xmlns="http://www.w3.org/2000/svg" viewBox="0 0 203.6 582.1"><defs><style>.cls-1{fill:#1dbafe;stroke:#fff;stroke-linecap:round;stroke-linejoin:round;stroke-width:2px;}</style></defs><title>Puttalam</title><path id="LKA2462" class="cls-1" d="M178.3,584.1l2.5,18.5-8.1,17.1L159,631l-.6,3.1-2.1,4-7.4,3.5-4.8,11,6.5,12.6,11,45,2.7,7.9h9.2l7.4-3.4,7.9,5.9,9-.3,6.5,5.2,4.9,6.4.8,8.5-.2,9,4.7,17.7,1.6,8.7,4.2,8,6,2.1,5.3,3.4-1.1,5.3-1.7,5.8.3,12-.4,10.2-3.4,5-2.5,5.3,5.3,9.9-5.6,4.3-9.2-5.2-2.5,4.3-.1,5.4-3.4,3.6-2.8.8.8-1.5-6.5,3-2.7,6.2-.7,4.5-1.7,4.1-9.4,4.9-2.1,4.5-1.3,4.8-5.4,3.7-5.7,3.1-1.6,4.8-.8,5.3-4.2,10.8L161.8,926l2.4,4.9,1.6,4.7-3.1,4.1-4.8,2-6.3.5-5.7,1.8-3,5.2-2.3,5.8,5.5,1.4,2.4,4-5.2,2.9-6.4,1.7-3.2,4.4-1.6,5-6.7,11.4L120.7,998l-.9,15.3.8,15.4,16.3,87.8,1.1,26.6-7.7-3-6.5,4-5.2-.6-3.4-3.9-8.6,1.1-8.2,2.2-10.5-.5L68.8,1002.5l-2.7-5.8,1.8-1.9,1.4-.2,3.2,2.1.7-7.7,2.2-8.9,1.1-8.6L74,964.8l-3.4-6.2-1.3-8.1.1-16.5L59.2,884,58,878.2l-5.2-10.9-4.5-23.1L41.1,826,30,775.6V761.3l1.8.9,1.2,2.2,1.6-8.3-2.4-26.4-2.2-8,7.2-4.8,6.9-8.9,5-10.1,1.9-8.5,2.1-5.5,13-20.7-6.7,15.9L51,694l2.3,4.5,3.3,3.3,4.3,1.7,5.2-.1-4.3,12.2-4.4,8.9-2,1.5-2,.2-1.6,1.3-.8,4.7.4,10.6-.4,3.3L43.6,770l.8,13.3,10,11.8-8.9,18.6,14.1,10.2,20.5,1.6,10.4-7.4-2-7.9-4.6-8.6-5.5-6.9L74,791.8,72.7,787l14.9-28.4-.6-5.2-1.9-3.8-2.2-3.2-1.4-3.3-.3-5.4.5-9.3-.2-3.9-1.4-3.9-1.6-1.5-.9-1.8.9-5,2.1-4.2,5.8-7.6,1.2-5,.9-9.3,4.1-18.7,4.2-43.7,2.7-4.9,3-2.5,2.2-2.9.9-6.6V588.3l2.6-9.1,6-5.9,7.1-4.8,4.1-4.5,5.1,3,11.6,4.4,13.1,1.3,11.3,4.8,11.8,6.6Z" transform="translate(-29 -563)"/></svg>