<?xml version="1.0" encoding="utf-8"?>
<!-- Generator: Adobe Illustrator 23.0.5, SVG Export Plug-In . SVG Version: 6.00 Build 0)  -->
<svg version="1.1" id="Layer_1" xmlns="http://www.w3.org/2000/svg" xmlns:xlink="http://www.w3.org/1999/xlink" x="0px" y="0px"
	 viewBox="0 0 167 120.3" style="enable-background:new 0 0 167 120.3;" xml:space="preserve">
<style type="text/css">
	.st0{fill:#00618A;stroke:#FFFFFF;stroke-width:2;stroke-linecap:round;stroke-linejoin:round;}
</style>
<title>Colombo</title>
<path id="LKA2470" class="st0" d="M161,27.8l-5.7,6.9l-4.8,7.6l-1.9,6.2l-2.3,5.3l10.9,11.6l-9.7,8.7l-12.9-3l-14.4,6.1l2.9,12.9
	l-8.7-2.2l-5.7-13.4l-2.3-1.3l-2.8-0.5L98.2,79l-6.9,3.5l-4.9-2.3l-4.9,0.6l-17,14.6l-4.9,2.2l-5.1,1.2l-12.8,4.8L21.3,90.9
	l-0.5,7.4l2.7,8.3l1.4,5.7l0.1,5.5l-0.9,1.5L7.6,76.9l-6-33.6L1,40V7.9l0.5-1.2l9.6,3.7l7.3,3.8l7.8,1.9l3.4-1.9l4.1-1.6L55.6,19
	l7.6-1.5l7.6-0.6l6,3.7l5.2,4.9l5,2.8l5.1,2l7.8,0.9l9.5-0.5l0.5-8.7l1.8-8.4l7-7l8.7-4l12,1.2l8-2.8l9.6,0.6l7.6,3.9l1.4,8.1
	l-5.9,5.5l0.6,4.3L161,27.8L161,27.8z"/>
</svg>
