<?xml version="1.0" encoding="utf-8"?>
<!-- Generator: Adobe Illustrator 23.0.5, SVG Export Plug-In . SVG Version: 6.00 Build 0)  -->
<svg version="1.1" id="Layer_1" xmlns="http://www.w3.org/2000/svg" xmlns:xlink="http://www.w3.org/1999/xlink" x="0px" y="0px"
	 viewBox="0 0 175.9 186.8" style="enable-background:new 0 0 175.9 186.8;" xml:space="preserve">
<style type="text/css">
	.st0{fill:#00618A;stroke:#FFFFFF;stroke-width:2;stroke-linecap:round;stroke-linejoin:round;}
</style>
<title>Gampaha</title>
<path id="LKA2471" class="st0" d="M168.8,31.1l0.8,6l-4.4,3.4l-1.1,15.3l-5.8,5.4l-7,3.7l-1.9,12.6l5.4,11.1l10.8-2.5l9.3,2.7
	l-3.3,7.6l-6.4,4.4l-5.6,13l-2.3,12.9l6.6,21.2l0.1,4l-1.4,3.7l-8,2.8l-12-1.2l-8.7,4l-7,7l-1.8,8.4l-0.5,8.7l-9.5,0.5l-7.8-0.9
	l-5.1-2l-5-2.8l-5.2-4.9l-6-3.7l-7.6,0.6l-7.6,1.5l-21.9-6.4l-4.1,1.6l-3.4,1.9l-7.8-1.9l-7.3-3.8l-9.6-3.7l4.4-10.6l1.2-5l-0.1-5.3
	L1,65.2l3-11L3.8,61l1.7,4.2l2.3,3.3l2.1,3.9l4.3,14.9l2,3.6H19l0.6-4.2l1.3-1.8l1.4-0.1l-0.1-13.7l-1-5.9L19,60.3l-2.1-1.5
	l-5.8-1.3l-2.6-1.7L6.6,52l0.7-3.6L9,45.2L9.9,42L7.3,22.8l10.5,0.5l8.2-2.2l8.6-1.1l3.4,3.9l5.2,0.6l6.5-4l7.7,3l9.4-3.7L83.6,6.5
	l10.6-0.4l12.2,8.6l12.8-3.8L130,3.2L142.3,1l4,4.4l1.3,3.8l2.5,3.7l11,12.6L168.8,31.1L168.8,31.1z"/>
</svg>
