<?xml version="1.0" encoding="utf-8"?>
<!-- Generator: Adobe Illustrator 23.0.5, SVG Export Plug-In . SVG Version: 6.00 Build 0)  -->
<svg version="1.1" id="Layer_1" xmlns="http://www.w3.org/2000/svg" xmlns:xlink="http://www.w3.org/1999/xlink" x="0px" y="0px"
	 viewBox="0 0 218 222.4" style="enable-background:new 0 0 218 222.4;" xml:space="preserve">
<style type="text/css">
	.st0{fill:#00618A;stroke:#FFFFFF;stroke-width:2;stroke-linecap:round;stroke-linejoin:round;}
</style>
<title>Kaluthara</title>
<path id="LKA2472" class="st0" d="M127.7,4l1.4,9.2l7.8,20.4l-0.7,7.1l2.9,8.4l4.2,8.9l13.5,13.1l2.6,12.9l4.9,4.6l6.2,2.4l9.8,9
	l6.4,12.3l-6.6,2.5l2.3,7.6l18.7,26.3l15.9,27.8l-15.7,3.6l-15.5,9.6l-8.1,3.6v9.5l3.3,9.7l-0.9,8.9l-6.9-5.5l-6.8-6.6l-13-10.1
	l-13.4,1.2l-12.1,6.8l-19.1-3.7l-7.4-4.9l-7.1-6.3l-8.8-3.8l-8-1.7l-16.3-7.5l-2.2-3.8l-3.2-3.1l-4.5,1.8l-2.9,1.9l-2.5-2.3
	l-2.4-3.4l-3.1-0.7l-1.8-7.6l-2.9-1.9l-2-1.7l-1.2-2.5l0.5-2.6l2.2-0.6l2.2,0.2h1.2l-3.4-23.3l-0.3-1.9l-9.2-23.7L4.3,49.2l0.9-1.5
	l-0.1-5.5l-1.4-5.7L1,28.2l0.5-7.4l20.4,12.7l12.8-4.8l5.1-1.2l4.9-2.2l17-14.6l4.9-0.6l4.9,2.3l6.9-3.5l5.4-6.3l2.8,0.5l2.3,1.3
	l5.7,13.4l8.7,2.2l-2.9-12.9L114.8,1L127.7,4L127.7,4z"/>
</svg>
