<?xml version="1.0" encoding="utf-8"?>
<!-- Generator: Adobe Illustrator 23.0.5, SVG Export Plug-In . SVG Version: 6.00 Build 0)  -->
<svg version="1.1" id="Layer_1" xmlns="http://www.w3.org/2000/svg" xmlns:xlink="http://www.w3.org/1999/xlink" x="0px" y="0px"
	 viewBox="0 0 400.6 549.3" style="enable-background:new 0 0 400.6 549.3;" xml:space="preserve">
<style type="text/css">
	.st0{fill:#00618A;stroke:#FFFFFF;stroke-width:2;stroke-linecap:round;stroke-linejoin:round;}
</style>
<title>Ampara</title>
<path id="LKA2451" class="st0" d="M346.4,125l0.5,1.8l3.6,0.8l3.5-4.6h2.8l3.4,18l-0.1,6.6h3l0.4-6.4l1.1-6.2l1.9-5.2l2.7-3.8v-3
	l-1.2-3.5l0.8-1.4l2.4,1l4,3.9l1.3,3.5l1,9.4l6.8,10.9l11.1,37.9l-2.1,104.7l1.1,7.1l4.5,15.7l0.7,9.3l-2.5,17.7l-20.4,70.7
	l-1.1,7.3l-0.4,9.6l-1.6,8l-6.3,12.4l-1.4,5.6l-2.5,7.6l-12.6,19.7l3,10.9l-4.9,12.8l-28,44.5l-4-1.3l-10.7-3.3l-7.4-8.4l-5.6-0.8
	l-5.1-0.4l-13.2-16.2l11.5-163.3l-2.2-8.8l-5.3-7.7v-8.6l-3.1-8.5l2.1-8.8l0.9-8.4l-13.1-7.9l-15.8-4l-2.2-2.1l-2.8-1.6h-3.3
	l-3.5-1.6l-3.5-6.1l-1.7-6.9l-5.7-10.4l5.1-13.8l9.2-10.9l7.2-5.7l-9.6-13.3l-1.3-9.6l-6.1-10.8l-9.8-8.5l-1.8-8.6l0.7-10.6
	l-5.3-23.5l0.9-6l-2.9-0.5l-2.8-1.7l6.5-10.1l-8.7-2.4l-11,5.9l-5.4,1.9l-4.8,2.2l-1.7,4.1l-3,4.8l-6.1,1.6l-4.5,0.4l0.1,5.8
	l2.4,5.2l0.5,5.3l-2,4.4l-3.1,3.7l-2.1,3.1l-8.9,5l-11-0.5l0.1,17.1l2.3,16.6l-8.2,6l-9,3.1l-3.8-7.2l-3.5-8.6l-1.6-8l-3.9-8
	l-3.1-5.2l-1.8-4l-5.4-1l-3.9,0.9l-6.6-6.5l-4.9-10.5l-2.9-19.6l-1.7-5.5l-1.4-5.5l1.3-4l2.4-4.6l4.7-21.7l-1.7-22.3l-19.6-4.2
	L54,89.5l-9.4,8.8l-5.4,2l-4.4,1l-8,2.9L15.9,86l-3.5-10.7L11.8,68l-2.9-6.3l-6.7-4.1L1,56.4l4.3-21.1l-1-8.6L1.1,16.6l0.3-7.4h8.3
	l16.5-1.6l8.1-1.4l16.1,6.2l13,13.1l21.4,6.6l10.4,6l8.6,1.1l1.1-4.6l2-5.3l2.9-2.9l2.4-4.8L110.8,11l2-10l12,2.4L139,2.7l11.8,3.8
	l15.1,21.9l9.8,9.4l13.4,3.8l14,2.7l-0.6,13.4l-4.3,12.9l0.8,7.5l4.1,6.7l13.9,8.3l7.5,7.3l29,5l29.4-3.2l10.4-5.8l0.2,11.2
	l3.4,10.9l1.3,25.3l3.3,7.2l15.4-15.4l9-7.2L346.4,125L346.4,125z"/>
</svg>
