<?xml version="1.0" encoding="utf-8"?>
<!-- Generator: Adobe Illustrator 23.0.5, SVG Export Plug-In . SVG Version: 6.00 Build 0)  -->
<svg version="1.1" id="Layer_1" xmlns="http://www.w3.org/2000/svg" xmlns:xlink="http://www.w3.org/1999/xlink" x="0px" y="0px"
	 viewBox="0 0 265.4 385.9" style="enable-background:new 0 0 265.4 385.9;" xml:space="preserve">
<style type="text/css">
	.st0{fill:#00618A;stroke:#FFFFFF;stroke-width:2;stroke-linecap:round;stroke-linejoin:round;}
</style>
<title>Batticaloa</title>
<path id="LKA2452" class="st0" d="M264.1,345.4l-6.6,5.4l-6.2-4.9l-2.8-2.9l-0.6-4.5l1.9-28.9l-1.3-9.7l-4.8-4.2l-1.9-3.9L227.1,270
	l-0.8-4.7l-3.8-8.1l-1.5-4.4l0.2-4.6l1.4-4.1l0.6-4.3l-2.2-5.2l5.7,5.5l5.4,12.9l4,5.9l5.1,13.7l15.7,25l7.5,38.9L264.1,345.4
	L264.1,345.4z M240.8,358.9l-20.5,3.4l-9,7.2l-15.4,15.4l-3.3-7.2l-1.3-25.3l-3.4-10.9l-0.2-11.2l-10.4,5.8l-29.4,3.2l-29-5
	l-7.5-7.3l-13.9-8.3l-4.1-6.7l-0.8-7.5l4.3-12.9l0.6-13.4l-14-2.7l-13.4-3.8l-9.8-9.4l-15.1-21.9l-11.8-3.8l-14.2,0.7l-12-2.4
	L1,200.4l3.9-34.3l3.3-13l9.9-6.7l12.6-1.8l16.1,2.2l4-0.3l-3.6-16.7l-7.4-16.1l-3.3-16.4l3.6-70.4L37.8,3.6L45.1,1l39.7,4.2
	l10.5,35.9l3.5,20.3l-8,11.1l-5.1-21L79,32.9h-3.3L75.2,47l0.5,4.5l-0.6,1.1v2.3l0.6,2.7l1.5,1.7l3.8,1.2l0.7,1.4l3.6,9.3l7.8,5.7
	l7.4-0.6l2.6-9.6h2.7l3.6,6.5l3.6,16.1l3.7,6.2l5,5.4l3.1,5.3l5.5,12.6l2.1-2.2l2.9-2.1l1.3-2.1l1.9,4.2l-1.9,2.2l2.5,3.8l0.2,2
	l2.3-1.8l4.5-2.2l2.3-1.8l2.3,5.6l-0.9,3.6l-1.6,3.6l0.2,5.5l3.1,6l9,6.9l3.2,5.4l-2,0.1l-4,2.6l-2.6,9.8l5.2,15.2l9.1,10.5l9.4-1.7
	h3l3.1,9.3l4.6,7.6l19,19.9l6.2,9.8l1,8.6l-9.8,3l-4.5-3.1l-10.9-13.9l-5.6-4.9l-7.4-2.7l-6,0.5l-4.6,4.8l-3.2,9.8l5.3,2.5l5.1,0.7
	l4.4-1.7l3.3-4.5l5.2,2l4.8,2.3l2.8,3.4l-0.7,4.8l11.7,11l4.6,5.3l4.9,8l-2.3,2.7l-0.6,2.5l0.7,3.1l2.2,4.2l2.7-3.4l-1.7-6.1
	l5.2,1.9l10.3,7.6l2.4,3.6l8.2,20.7l-0.5,0.9l-2.6,11.3l0.5,1.4l2.1,4.3l0.5,1.8l-1.8,3l-3.1,2.5l-1.9,2.7l2.2,4l2.2,2.8l0.8,2.5
	l1.3,2.6l3.3,2.9l-4.8,3.4L240.8,358.9z"/>
</svg>
