<?xml version="1.0" encoding="utf-8"?>
<!-- Generator: Adobe Illustrator 23.0.5, SVG Export Plug-In . SVG Version: 6.00 Build 0)  -->
<svg version="1.1" id="Layer_1" xmlns="http://www.w3.org/2000/svg" xmlns:xlink="http://www.w3.org/1999/xlink" x="0px" y="0px"
	 viewBox="0 0 295.2 377" style="enable-background:new 0 0 295.2 377;" xml:space="preserve">
<style type="text/css">
	.st0{fill:#00618A;stroke:#FFFFFF;stroke-width:2;stroke-linecap:round;stroke-linejoin:round;}
</style>
<title>Trincomalee</title>
<path id="LKA2454" class="st0" d="M294.2,329.6l-39.7-4.2l-7.3,2.6h-12.4l-4,4.4l-2.9,5.3l-3.4,2.5l-3,2.7l-2.8,11.6l-2.3,4.3
	l-6.2,14.7l-11.1,2.5l-2.1-0.7l-1.8-1.3l5.1-3.2l2.4-5.6l-1.5-8.4l0.1-5.8l-0.6-5.7l-3.2-4.4l-5.6,0.4l-7.8-4l-7.1-5.5l-7.3-4.2
	h-7.9l-33.5-8.2l-18.6,1.8l-5.6-5.6l-1.8-9.3l-6.8-5.3l-7.1-2.8l-5.2-7.6l-6.6,1.9l9.6-34.3l1-5.6l1.8-5.4l5.5-5.4l6.3-4.1l3.6-6.6
	l-3-6.8l-5.1-4l-3.9-5l-6.3-14.9L74.5,183l-1.9-10.7l-4.7-4.6l-3.7-4.3l-0.4-9.1l6.9-16l-3.4-9.4L59.1,111l-0.3-19.3l7.5-11
	l5.2-11.6l-4.2-3.2L63.7,61l-6.8-7.4L37.7,40.1l-11.3-6.4l-12.9-0.3L1,38.5l2-7.8l3.6-6.4L24,16.2l20.4-2.7l8.5-2.4l7.6-4.6L69,4.1
	L76,1l0.2,7l5.2,3.7l-4.7,4.5l-4.2,4.9l7,5.5l7.4-0.5l6.2-5.8l4.5-8l3-7.3l16,19.4l14.1,24.4l5.8,6l8.1,2.4l6.5,5.2l9.5,23.1
	l4.9,5.3l10.9,4.9l5.5,11.7l6.2,23.3l1.1-4.3l1.4-1.6l2.4,0.5l4.3,2.4l-1.2,4.3l12.3,13.4l4,6.7v8.1l-3.2,3.2l-4.6,2.1l-4.2,4.9
	l6.5-1.7l2.6-1.3l9.5,20.9l1.4,10.9l-11,1.7l2.3-7.2l-3-5.7l-4.8-0.9l-3.5,7.7l1.2,6l3.1,4.2l1.7,4.6l-3.3,6.8l-7.4-5.7l-7.6-4.7
	l-7.8-1.8l-7.3,3.1l-5.7,7.7l2,4.1l6.8-1.1l9.2-7.6l6.3,6.7l5.7,8.1l7,6.8l9.7,2.8l20.3-0.4l6.8-4.4l-4.5-10.5l11.6-5.3l4.6-1.4
	l4.9,0.3l5.4,3.1l4.9,5.3l3.7,6.1l3.1,17.9l6.9,23l0.4,12l-5.6-3.9l-5.8-11.9l-5.2-2.5l-0.2,3.2l2.3,15.7l2.4,5.5l5.7,2.7h6l4.8,2.1
	l2.8,17.1l3.9,13.8L294.2,329.6L294.2,329.6z"/>
</svg>
