<svg id="Layer_1" data-name="Layer 1" xmlns="http://www.w3.org/2000/svg" viewBox="0 0 228.7 214.2"><defs><style>.cls-1{fill:#1dbafe;stroke:#fff;stroke-linecap:round;stroke-linejoin:round;stroke-width:2px;}</style></defs><title>Galle</title><path id="LKA2464" class="cls-1" d="M332.6,1520.8l5.4,5.6,6,5.1,7.5,3,6.6.2,13.7,6.8,7.1-.3,3.8,5.5-9.1,2.8-5.9,6,5.2,7.9,6.8,6.9-2.6,12.6-13.7-3.2-8.4-7.9-9.4-7.1-7.3-2.1-7,1.9,4.3,8.2,8.8,5.6,9.3,13.4,3.3,12.7-7.7,9.5-15.5-2.7,4.6,5.5,2.1,7.2-3.2,9.2-4,8.6,2.8,8.7,6.9,6.4,7.9,5.4,6.9,6.3-6,7.2-7,7.1-6.1,2.5-2.6,4.2,1.3,4.6,3.5,1.8,7.8,3.3-2.7,5.4-8,3-4.9,8.6.1,4.9.8,5.1-2.8-.4-2.1-1-1.5-2.1-1.9-2-3.4-1-2.1.7-1.6,1.5-1.7,1.2-2.3-.1-1.5-1.3-2.8-4-1.8-1-3.1-1.1-18.9-6.8-13.2-2.8-9.6-7.7-6.5-3.1-3.2,3.3-8.2-6.7-36-38.2-3-2.3-1.3-1.7-.6-1.8.2-3.8-1.2-2-5.5-7.2-20.3-43.1-.9-4.1.2-7.5-.7-2.2-3.7-7.7-3.7-20.7-8.2-14.6L156,1514l3.1.7,2.4,3.4,2.5,2.3,2.9-1.9,4.5-1.8,3.2,3.1,2.2,3.8,16.3,7.5,8,1.7,8.8,3.8,7.1,6.3,7.4,4.9,19.1,3.7,12.1-6.8,13.4-1.2,13,10.1,6.8,6.6,6.9,5.5.9-8.9-3.3-9.7v-9.5l8.1-3.6,15.5-9.6,15.7-3.6Z" transform="translate(-155 -1513)"/></svg>