<svg id="Layer_1" data-name="Layer 1" xmlns="http://www.w3.org/2000/svg" viewBox="0 0 488.1 270.1"><defs><style>.cls-1{fill:#1dbafe;stroke:#fff;stroke-linecap:round;stroke-linejoin:round;stroke-width:2px;}</style></defs><title>Hambanthota</title><path id="LKA2465" class="cls-1" d="M920.3,1483.2l-13.6,21.4-13.8,14-25.7,18.2-8.3,2.5-11.3,6-82,64.6-16.4,8.9-53.2,19-.8-6.8-3.1-2.5-3.5.9-1.7,3.6-.9,7.5-2.4,2.8-3.8,1-5.2,2.3-9.6,5.8-9.6,4.2-46,9.9-22.3,7.7-24.4,4.5-11.1,4.3-6.7,9.4-12-2.4-11.5,4.5-34.1,25.2-1,1.2-2.5-1.4-11.2-5-5.2-8.2,3.1-1.7.2-3.7-3.7-2.1-4.3-.4-6.2-4-1-7.1,14.3-6.1-4.9-17.1,4.1-3.7,1.6-3.9-4.9-1.1-5.2.9-7.2-3.9-1.5-7.6,2.6-4,2.1-4.6-2.4-2.4-3.9.7-8.4-3.2-7.6-5.4,5.4-19.1,16.9-12.9-3-7,3-7.8-.7-3.4,4.1-1.6,25.3,4.8,32.4,11.8,8.5,1.4,8.4-2.1,8.4-.8,6.7,5.3,5.2,6,16.2,3.3,9.3,3.1,2.2-7.9-4.1-11.3-8.1-9.1,10.8-7.1,11.2-6,12.5-4.1,9.5-7.3-4.2-9.9,2.1-10.1h5.6l6-.4,3.6-5.2v-5.9l5.4,3.9,4.2-4.8,11.1-.1L659,1523l7.6,2.7,3.4,8.2,4.3.6,4.8-.2,4-2.9,5.6-.6,8.2,10.8,6.8,11.5,11,4.6,12.1-6.6,4.4-4.4,6.7-2.8,12.9-3.4,26.3-10.2,4.8-3.5,1.1,1.3,3.9.5,11.8-4.3,12.3,2.8,5.7-9.4v-3.9l-.2-3.6,2-2.8,1.9-3.1-2.3-6-.2-7.5,8.8-7,10.5-4.7,8-7.8,9.3-7.1,11.9-2.2,7.9-9.2,13.2,16.2,5.1.4,5.6.8,7.4,8.4,10.7,3.3,4,1.3Z" transform="translate(-433.2 -1451.8)"/></svg>