<svg id="Layer_1" data-name="Layer 1" xmlns="http://www.w3.org/2000/svg" viewBox="0 0 157 212.3"><defs><style>.cls-1{fill:#1dbafe;stroke:#fff;stroke-linecap:round;stroke-linejoin:round;stroke-width:2px;}</style></defs><title>Matara</title><path id="LKA2466" class="cls-1" d="M459.9,1574.1l-4.1,1.6.7,3.4-3,7.8,3,7-16.9,12.9-5.4,19.1,7.6,5.4,8.4,3.2,3.9-.7,2.4,2.4-2.1,4.6-2.6,4,1.5,7.6,7.2,3.9,5.2-.9,4.9,1.1-1.6,3.9-4.1,3.7,4.9,17.1-14.3,6.1,1,7.1,6.2,4,4.3.4,3.7,2.1-.2,3.7-3.1,1.7,5.2,8.2,11.2,5,2.5,1.4-6.8,7.9-18.1-1.1-7.6,1.1-5.9,2.3-6,3.4-10.8,8.1-6.2,1.4-7.3-2.8-7.8-4.1-7.5-2.2-25.6,3-7.3-1.4-3.7-3.7-2.3-4.8-3.3-5-7.5,4.4-6.7.5-11.9-1.7-.8-5.1-.1-4.9,4.9-8.6,8-3,2.7-5.4-7.8-3.3-3.5-1.8-1.3-4.6,2.6-4.2,6.1-2.5,7-7.1,6-7.2-6.9-6.3-7.9-5.4-6.9-6.4-2.8-8.7,4-8.6,3.2-9.2-2.1-7.2-4.6-5.5,15.5,2.7,7.7-9.5-3.3-12.7-9.3-13.4-8.8-5.6-4.3-8.2,7-1.9,7.3,2.1,9.4,7.1,8.4,7.9,13.7,3.2,2.6-12.6-6.8-6.9-5.2-7.9,5.9-6,9.1-2.8,8.6-1.2,8.7-2,3.1-7.2,7.5-.1,19.4-2.5,6.4,11.7-2.9,8,7.9,1.4L452,1553l5,6.1-.4,4.2,5.7,4.2-2.4,2.4v4.2Z" transform="translate(-330.3 -1532.7)"/></svg>