<svg id="Layer_1" data-name="Layer 1" xmlns="http://www.w3.org/2000/svg" viewBox="0 0 457.9 494.1"><defs><style>.cls-1{fill:#1dbafe;stroke:#fff;stroke-linecap:round;stroke-linejoin:round;stroke-width:2px;}</style></defs><title>Anuradhapura</title><path id="LKA2455" class="cls-1" d="M572.2,669.1l-5.7,6-3.3,7.9-1.9,7.8-5.6,3.3H536.1l-17.5,3.3-6.5,17.1-3.6,18.8-6.4,16.8-3,17.5-.7,15.5,8.8,7-8.6,12.1L498,814l-9.3,3.8-8.4,4.2-5.7,5.1-8.6,9.1-2.6,1.8-3.3-.9h-4.4l-2.5,7.1.1,8.3-4.2,6.5-5.7,5.9,1,2,.3,3.2-2.9,1.7-3.1,2.1-3.2,5.4-6.6,4.6-5.3-3.5-7.1-.3-7.8,9.5-14.9,5.5-9.4,7-11.2-10.9,1.7-15.4-2.2-10.6-4.2-10.3-1.1-7.5-3.7-6.2-7.1-.5-6.2-2.6-.8-7.7.6-8.1-1.3-9.6.8-5.6-.1-5.6-6.7-5.5-8.3.3-8-4.9-7.2-7.3-13.3-10.9-14.6-5.6-8.2-1.2-6.6-4.8-8.5-3.4-8.7-2.2-40.7-18.7-9.6-5.4-4.9-6.4-6.5-5.2-9,.3-7.9-5.9-7.4,3.4h-9.2l-2.7-7.9-11-45-6.5-12.6,4.8-11,7.4-3.5,2.1-4,.6-3.1,13.7-11.3,8.1-17.1-2.5-18.5,3.6,1.8,4.3.5.9-41.4-3.5-26.2,19.6,8.1h21.7l43-11.3.2,14.5,4.5,12.6,6.7,2.3,6.5,3,2.9,5.5,1.6,6.1,4.7,9.5,9.3,5,4.6,1.2,4.3.3,6.8-12.2,7.8-3.5,8.3-19.2L353.5,518l13.4-6.2,8.2,4.4,7.5,5.3,14-.1,11.8-9,11.2-10.1,9.6-11.3,5.4-8.2,6.2-7.6,10.5-8.4-3.7-11.6-8.1-10.5-11.5-4-.9-9.8,32.9-1.2,12.8-9,11.6-3.3,12.2-2.3,12.5-5.1,12.9.3,11.3,6.4,19.2,13.5,6.8,7.4,3.6,4.9,4.2,3.2-5.2,11.6-7.5,11,.3,19.3,8.2,17.9,3.4,9.4-6.9,16,.4,9.1,3.7,4.3,4.7,4.6,1.9,10.7L581.7,577l6.3,14.9,3.9,5,5.1,4,3,6.8-3.6,6.6-6.3,4.1-5.5,5.4-1.8,5.4-1,5.6-9.6,34.3Z" transform="translate(-143.1 -409)"/></svg>