<svg id="Layer_1" data-name="Layer 1" xmlns="http://www.w3.org/2000/svg" viewBox="0 0 259.8 308.9"><defs><style>.cls-1{fill:#1dbafe;stroke:#fff;stroke-linecap:round;stroke-linejoin:round;stroke-width:2px;}</style></defs><title>Polonnaruwa</title><path id="LKA2453" class="cls-1" d="M742.8,704.6l2.3,23.3-3.6,70.4,3.3,16.4,7.4,16.1,3.6,16.7-4,.3-16.1-2.2-12.6,1.8-9.9,6.7-3.3,13L706,901.4l6.2,34.5-2,10,1.4,10.6-2.4,4.8-2.9,2.9-2,5.3-1.1,4.6-8.6-1.1-10.4-6-21.4-6.6-13-13.1-16.1-6.2-8.1,1.4-16.5,1.6h-8.3L578,948.3l-23.7-1.7-1,8-2,7.8-6.7-4.2-3.8-5.3-8.8,8-11.1,4.7L509.2,963l-4.3-6.2.8-8.7-6-27.1,3-12.3,12.8-2.8.8-3.3,1.5-3.2,4.3-18,1.2-10.2,4.3-21.1,13.3-13.9-6.5-3.9-7-1.5-5.1-1.4-5.3,2.5-.2,2.9-2.9,1.8-3.7-1.4-2.4-2.6.2-7.9-6.2-6.9L498,814l.6-11.8,8.6-12.1-8.8-7,.7-15.5,3-17.5,6.4-16.8,3.6-18.8,6.5-17.1,17.5-3.3h19.6l5.6-3.3,1.9-7.8,3.3-7.9,5.7-6,6.6-1.9,5.2,7.6,7.1,2.8,6.8,5.3,1.8,9.3,5.6,5.6,18.6-1.8,33.5,8.2h7.9l7.3,4.2,7.1,5.5,7.8,4,5.6-.4,3.2,4.4.6,5.7-.1,5.8,1.5,8.4-2.4,5.6-5.1,3.2,1.8,1.3,2.1.7,11.1-2.5,6.2-14.7,2.3-4.3,2.8-11.6,3-2.7,3.4-2.5,2.9-5.3,4-4.4Z" transform="translate(-497 -666.2)"/></svg>