<?xml version="1.0" encoding="utf-8"?>
<!-- Generator: Adobe Illustrator 23.0.5, SVG Export Plug-In . SVG Version: 6.00 Build 0)  -->
<svg version="1.1" id="Layer_1" xmlns="http://www.w3.org/2000/svg" xmlns:xlink="http://www.w3.org/1999/xlink" x="0px" y="0px"
	 viewBox="0 0 263.5 245.9" style="enable-background:new 0 0 263.5 245.9;" xml:space="preserve">
<style type="text/css">
	.st0{fill:#00618A;stroke:#FFFFFF;stroke-width:2;stroke-linecap:round;stroke-linejoin:round;}
</style>
<title>kandy</title>
<path id="LKA2448" class="st0" d="M248.9,2.6l3.9,67.3l9.7,32.2l-0.8,14.5l-11.9,11.1l-9.5,2.7l-5.6,3.4l-18.3-3.8l-18.9,2.9
	l-16.2-1.3l-10.2-16.1l-3.8-0.4l-4.6-1.7l-6.3-8.5l-7.7-6.9l1.4,12.9l4,16.7l-8.9,15.2l-28.5,33.7l-7.5-2l-8.7,0.2l-12.8,8.9l-9,2
	l-15.9-2l-10,8l3.6-1.1l3.4,1.5l7.8,14.4l6.6,6.2l5.2,7.2l-5.3,14.9l-9.5,10.2l-12.9-7.7l-19.8-29.5l-12.6-1.1l0.2-8.9l3.2-6.8
	l-3.2-5.6l-6.7-16l5-4.7l15.3-2.5l7-7.5l4.8-0.3l4.8-1.2l3.5-5.4l2.5-5.9l-5.2-6.5l-6.4-6.3l-0.1-6.6l1.1-7.9l-5.3-6.5l-11.3-6.3
	l-3.7-2.6l0.7-8.6L6.4,73.7L1,60.1l9.1,1l8-2.4l-0.8-2l-0.3-3l1.5-2.6l1.9-2.4l1.4-8.9h6.3l6.9,4.9l7.5,0.6l0.7-4.7l-0.7-4.9L49,32
	l6.3,1.1l4.8-2.2l-2.7-6.1l-3.5-5.6l5.2-1.4l5.3-2.5l9.1,12.6l28,17.6l16.3,1l9.4-10.5l-1.5-16.3l2.7-7l6.1-3.7l6.6,2.5l16.4,13.6
	l12.7-1.9l14-11.5l18.2,0.1l7.3-3.6l5.3,6.7l3.2-1.8l2.9-2.5l4.9-8.2l8.9-1.4L248.9,2.6L248.9,2.6z"/>
</svg>
