<?xml version="1.0" encoding="utf-8"?>
<!-- Generator: Adobe Illustrator 23.0.5, SVG Export Plug-In . SVG Version: 6.00 Build 0)  -->
<svg version="1.1" id="Layer_1" xmlns="http://www.w3.org/2000/svg" xmlns:xlink="http://www.w3.org/1999/xlink" x="0px" y="0px"
	 viewBox="0 0 224.3 280.6" style="enable-background:new 0 0 224.3 280.6;" xml:space="preserve">
<style type="text/css">
	.st0{fill:#00618A;stroke:#FFFFFF;stroke-width:2;stroke-linecap:round;stroke-linejoin:round;}
</style>
<title>Matale</title>
<path id="LKA2449" class="st0" d="M219.4,131.1l-0.3,7.4l3.2,10.1l1,8.6l-4.3,21.1l-4.2,20.9l2.1,36.5l-14-1.6l-8.9,1.4l-4.9,8.2
	l-2.9,2.5L183,248l-5.3-6.7l-7.3,3.6l-18.2-0.1l-14,11.5l-12.7,1.9l-16.4-13.6l-6.6-2.5l-6.1,3.7l-2.7,7l1.5,16.3l-9.4,10.5l-16.3-1
	l-28-17.6l-9.1-12.6l0.2-4.6l2.5-3.3l0.9-5.4l-1.3-5.6l-2.2-4.7l-2.7-4.4l-4.4-9l1.1-9.4l6.2-5.7l1.6-3.8l-0.1-4.1l1.3-5.3l0.2-5.2
	l-8.1-7.9l-2.4-13.8l-1.3-14.9l-2.3-3.2L20,137l-0.1-7.7l-3-7.7l-4.4-7.4l-3.1-6.9L6,106.4l-3.9-2.2L1,96.3l2-7.2l9.4-7l14.9-5.5
	l7.8-9.5l7.1,0.3l5.3,3.5l6.6-4.6l3.2-5.4l3.1-2.1l2.9-1.7L63,53.9l-1-2l5.7-5.9l4.2-6.5l-0.1-8.3l2.5-7.1h4.4L82,25l2.6-1.8
	l8.6-9.1L98.9,9l8.4-4.2l9.3-3.8l3.8,3.8l6.2,6.9l-0.2,7.9l2.4,2.6l3.7,1.4l2.9-1.8l0.2-2.9l5.3-2.5l5.1,1.4l7,1.5l6.5,3.9
	l-13.3,13.9l-4.3,21.1l-1.2,10.2l-4.3,18l-1.5,3.2l-0.8,3.3l-12.8,2.8l-3,12.3l6,27.1l-0.8,8.7l4.3,6.2l11.7,2.6l11.1-4.7l8.8-8
	l3.8,5.3l6.7,4.2l2-7.8l1-8l23.7,1.7L219.4,131.1L219.4,131.1z"/>
</svg>
