<?xml version="1.0" encoding="utf-8"?>
<!-- Generator: Adobe Illustrator 23.0.5, SVG Export Plug-In . SVG Version: 6.00 Build 0)  -->
<svg version="1.1" id="Layer_1" xmlns="http://www.w3.org/2000/svg" xmlns:xlink="http://www.w3.org/1999/xlink" x="0px" y="0px"
	 viewBox="0 0 237.7 232.7" style="enable-background:new 0 0 237.7 232.7;" xml:space="preserve">
<style type="text/css">
	.st0{fill:#00618A;stroke:#FFFFFF;stroke-width:2;stroke-linecap:round;stroke-linejoin:round;}
</style>
<title>NuwaraEliya</title>
<path id="LKA2450" class="st0" d="M230.2,36.8l-0.3,8l3.3,11.1l-1,4.1l0.9,3.7l2,2.4l1.6,2.3l-3,3.7l-2.1,4.1l2.4,7.9l0.6,3.1
	l-1.4,3.3l-2.9,3.7l-3.6,3.3l-4,7.8l-2,8.7l-9.8,14.6l-16.8,3.7l-7.9,3.8l-7,6.4l-2.2,8.8l-5.9,6.9l-8.3-0.5l-8,0.4l0.5,7.1
	l14.1,7.1l3,6.2l2.5,6.8l2.2,2.8l1.8,3l-6.5,10.6l4,2.6l4.1,2l-4.5,6.4l-8.4,2.1l-25,13.1l-13.8,1.9l-14.6-0.5l-11,0.9l-9.3,1.5
	l-24.3-3.3l-22.9-5.1l-10.8-0.9l-9-7l1.6-4.5l3.3-3.2l-3-3.3l0.3-7.3l5.1-4.4l-0.7-6L30.1,175l-10.2-7.6L7,163.2l-3.8-12.8l3.1-16.6
	l-2.8-2.9L1,127.5l2.4-3.3l3.4-1.1l6.1-5.4l3.9-6.3l-1.4-0.4l-0.6-1.4l12.6,1.1l19.8,29.5l12.9,7.7l9.5-10.2l5.3-14.9l-5.2-7.2
	l-6.6-6.2L55.3,95l-3.4-1.5l-3.6,1.1l10-8l15.9,2l9-2L96,77.7l8.7-0.2l7.5,2l28.5-33.7l8.9-15.2l-4-16.7L144.2,1l7.7,6.9l6.3,8.5
	l4.6,1.7l3.8,0.4l10.2,16.1l16.2,1.3l18.9-2.9L230.2,36.8L230.2,36.8z"/>
</svg>
