<?xml version="1.0" encoding="utf-8"?>
<!-- Generator: Adobe Illustrator 23.0.5, SVG Export Plug-In . SVG Version: 6.00 Build 0)  -->
<svg version="1.1" id="Layer_1" xmlns="http://www.w3.org/2000/svg" xmlns:xlink="http://www.w3.org/1999/xlink" x="0px" y="0px"
	 viewBox="0 0 228.7 214.2" style="enable-background:new 0 0 228.7 214.2;" xml:space="preserve">
<style type="text/css">
	.st0{fill:#00618A;stroke:#FFFFFF;stroke-width:2;stroke-linecap:round;stroke-linejoin:round;}
</style>
<title>Galle</title>
<path id="LKA2464" class="st0" d="M177.6,7.8l5.4,5.6l6,5.1l7.5,3l6.6,0.2l13.7,6.8l7.1-0.3l3.8,5.5l-9.1,2.8l-5.9,6l5.2,7.9
	l6.8,6.9l-2.6,12.6l-13.7-3.2l-8.4-7.9l-9.4-7.1l-7.3-2.1l-7,1.9l4.3,8.2l8.8,5.6l9.3,13.4l3.3,12.7l-7.7,9.5l-15.5-2.7l4.6,5.5
	l2.1,7.2l-3.2,9.2l-4,8.6l2.8,8.7l6.9,6.4l7.9,5.4l6.9,6.3l-6,7.2l-7,7.1l-6.1,2.5l-2.6,4.2l1.3,4.6l3.5,1.8l7.8,3.3l-2.7,5.4l-8,3
	l-4.9,8.6l0.1,4.9l0.8,5.1l-2.8-0.4l-2.1-1l-1.5-2.1l-1.9-2l-3.4-1l-2.1,0.7l-1.6,1.5l-1.7,1.2l-2.3-0.1l-1.5-1.3l-2.8-4l-1.8-1
	l-3.1-1.1l-18.9-6.8l-13.2-2.8l-9.6-7.7l-6.5-3.1l-3.2,3.3l-8.2-6.7l-36-38.2l-3-2.3l-1.3-1.7l-0.6-1.8l0.2-3.8l-1.2-2l-5.5-7.2
	L23.1,78.7l-0.9-4.1l0.2-7.5l-0.7-2.2L18,57.2l-3.7-20.7L6.1,21.9L1,1l3.1,0.7l2.4,3.4L9,7.4l2.9-1.9l4.5-1.8l3.2,3.1l2.2,3.8
	l16.3,7.5l8,1.7l8.8,3.8l7.1,6.3l7.4,4.9l19.1,3.7l12.1-6.8l13.4-1.2l13,10.1l6.8,6.6l6.9,5.5l0.9-8.9l-3.3-9.7v-9.5l8.1-3.6
	l15.5-9.6L177.6,7.8z"/>
</svg>
