<?xml version="1.0" encoding="utf-8"?>
<!-- Generator: Adobe Illustrator 23.0.5, SVG Export Plug-In . SVG Version: 6.00 Build 0)  -->
<svg version="1.1" id="Layer_1" xmlns="http://www.w3.org/2000/svg" xmlns:xlink="http://www.w3.org/1999/xlink" x="0px" y="0px"
	 viewBox="0 0 488.1 270.1" style="enable-background:new 0 0 488.1 270.1;" xml:space="preserve">
<style type="text/css">
	.st0{fill:#00618A;stroke:#FFFFFF;stroke-width:2;stroke-linecap:round;stroke-linejoin:round;}
</style>
<title>Hambanthota</title>
<path id="LKA2465" class="st0" d="M487.1,31.4l-13.6,21.4l-13.8,14L434,85l-8.3,2.5l-11.3,6l-82,64.6L316,167l-53.2,19l-0.8-6.8
	l-3.1-2.5l-3.5,0.9l-1.7,3.6l-0.9,7.5l-2.4,2.8l-3.8,1l-5.2,2.3l-9.6,5.8l-9.6,4.2l-46,9.9l-22.3,7.7l-24.4,4.5l-11.1,4.3l-6.7,9.4
	l-12-2.4l-11.5,4.5l-34.1,25.2l-1,1.2l-2.5-1.4l-11.2-5l-5.2-8.2l3.1-1.7l0.2-3.7l-3.7-2.1l-4.3-0.4l-6.2-4l-1-7.1l14.3-6.1
	l-4.9-17.1l4.1-3.7l1.6-3.9l-4.9-1.1l-5.2,0.9l-7.2-3.9l-1.5-7.6l2.6-4l2.1-4.6l-2.4-2.4l-3.9,0.7l-8.4-3.2L1,174.1L6.4,155
	l16.9-12.9l-3-7l3-7.8l-0.7-3.4l4.1-1.6l25.3,4.8l32.4,11.8l8.5,1.4l8.4-2.1l8.4-0.8l6.7,5.3l5.2,6l16.2,3.3l9.3,3.1l2.2-7.9
	l-4.1-11.3l-8.1-9.1l10.8-7.1l11.2-6l12.5-4.1l9.5-7.3l-4.2-9.9l2.1-10.1h5.6l6-0.4l3.6-5.2v-5.9l5.4,3.9l4.2-4.8l11.1-0.1l10.9,1.4
	l7.6,2.7l3.4,8.2l4.3,0.6l4.8-0.2l4-2.9l5.6-0.6l8.2,10.8l6.8,11.5l11,4.6l12.1-6.6l4.4-4.4l6.7-2.8l12.9-3.4l26.3-10.2l4.8-3.5
	l1.1,1.3l3.9,0.5l11.8-4.3l12.3,2.8l5.7-9.4V62l-0.2-3.6l2-2.8l1.9-3.1l-2.3-6l-0.2-7.5l8.8-7l10.5-4.7l8-7.8l9.3-7.1l11.9-2.2
	l7.9-9.2l13.2,16.2l5.1,0.4l5.6,0.8l7.4,8.4l10.7,3.3L487.1,31.4L487.1,31.4z"/>
</svg>
