<?xml version="1.0" encoding="utf-8"?>
<!-- Generator: Adobe Illustrator 23.0.5, SVG Export Plug-In . SVG Version: 6.00 Build 0)  -->
<svg version="1.1" id="Layer_1" xmlns="http://www.w3.org/2000/svg" xmlns:xlink="http://www.w3.org/1999/xlink" x="0px" y="0px"
	 viewBox="0 0 157 212.3" style="enable-background:new 0 0 157 212.3;" xml:space="preserve">
<style type="text/css">
	.st0{fill:#00618A;stroke:#FFFFFF;stroke-width:2;stroke-linecap:round;stroke-linejoin:round;}
</style>
<title>Matara</title>
<path id="LKA2466" class="st0" d="M129.6,41.4l-4.1,1.6l0.7,3.4l-3,7.8l3,7l-16.9,12.9l-5.4,19.1l7.6,5.4l8.4,3.2l3.9-0.7l2.4,2.4
	l-2.1,4.6l-2.6,4l1.5,7.6l7.2,3.9l5.2-0.9l4.9,1.1l-1.6,3.9l-4.1,3.7l4.9,17.1l-14.3,6.1l1,7.1l6.2,4l4.3,0.4l3.7,2.1l-0.2,3.7
	l-3.1,1.7l5.2,8.2l11.2,5l2.5,1.4l-6.8,7.9l-18.1-1.1l-7.6,1.1l-5.9,2.3l-6,3.4l-10.8,8.1l-6.2,1.4l-7.3-2.8l-7.8-4.1l-7.5-2.2
	l-25.6,3l-7.3-1.4l-3.7-3.7l-2.3-4.8l-3.3-5l-7.5,4.4l-6.7,0.5l-11.9-1.7l-0.8-5.1l-0.1-4.9l4.9-8.6l8-3l2.7-5.4l-7.8-3.3l-3.5-1.8
	l-1.3-4.6l2.6-4.2l6.1-2.5l7-7.1l6-7.2l-6.9-6.3l-7.9-5.4l-6.9-6.4L3,109l4-8.6l3.2-9.2L8.1,84l-4.6-5.5L19,81.2l7.7-9.5L23.4,59
	l-9.3-13.4L5.3,40L1,31.8l7-1.9l7.3,2.1l9.4,7.1l8.4,7.9l13.7,3.2l2.6-12.6l-6.8-6.9l-5.2-7.9l5.9-6l9.1-2.8l8.6-1.2l8.7-2l3.1-7.2
	l7.5-0.1L99.7,1l6.4,11.7l-2.9,8l7.9,1.4l10.6-1.8l5,6.1l-0.4,4.2l5.7,4.2l-2.4,2.4L129.6,41.4L129.6,41.4z"/>
</svg>
