<svg id="Layer_1" data-name="Layer 1" xmlns="http://www.w3.org/2000/svg" viewBox="0 0 430.6 173.9"><defs><style>.cls-1{fill:#1dbafe;stroke:#fff;stroke-linecap:round;stroke-linejoin:round;stroke-width:2px;}</style></defs><title>Jaffna</title><path id="LKA2459" class="cls-1" d="M37.9,155.5l-11.2.6-10.3-3.4L11.9,147V128.6l1.3-4.7,2.9.6,3,3.8,1.8,4.8,7.6,2.4,9.1.7,2.3,1.6L45,148.7l-7.1,6.8Zm49.5-51.2,3.2,2.7,3.6-.3,1.9-1.6-2.6-4.5.2-2.5h3.8l4.4,3.4,1.7,6.1-1.2,9.4-1.3,2.2-4,.5-14.5-2.8-2.9-4.1.6-16.7L82,93.7l2.3,2.4,3.1,8.2ZM121,68.6l1.9.4,8.5-.4,1.5,1.3.6,6.7,1.1,2.8,5,3.2,6.9,2.9,5.7,3.3,2,4.2-3.1,3.2h-5.8L139,94.3l-4.4-2.8-3.1-.8-8,4.7-5.6.7-6.8-5-6.8-10.3L93.5,59.4l4.9-7.7,1.1-9.8,2.8-8,9.6-2.1,5.2,1.6.5,3.8-1.8,5.2-1.2,6.1.2,6.2.7,5.2,1.9,4.5,3.6,4.2Zm171.3-.9-6,12.9L277,97,254.3,87l-8.2-4.8-5.5-.1L241.7,93l3,3.2,4.8,3.7,2.8,4.4-2.8,5.7-3.4,1.1-3.2-1.8-3-2.5-8.5-4.4L214.9,87.9l-9.4-4.1,4.8,5.4,8.7,7.6,4.8,5.4-10.7-2.1-10.6-4.4L181.3,83.8,164.4,70.4l-10.1-3.5-4.8-3.1-3.6-1.5-.5,3.2-4.9-3.3-1.8-4.4-.9-5.1-1.7-5.9-2.9-4.9-6.3-8.3L124,28.5l9.6-4.8L151,7.5,158.8,4l34.6,3,18-2,6.6.8,2.6,6-.5,9.4,1.3,3.2,3.8,1.3,3.7.5,10.5,2.7,2.3,1.2,1.9,4,4.8-.2,5.2-1.6,3.6-.5,4.9,2.9,30.2,33ZM440.5,169l-2.7,2.3-2.3,1.6-30.1-20.7-10.3-4.9-9.2-2-2.7-1.2-8-6.1-3-1.8-3-.5-3.7.2-.8-4.5-5.6-17.1,1,.5v-3.4L344,103.3l-38.8-32L273.4,34.4l-16.2-8.7-25.3-6-6.7-4.9L224.3,8l9.3-4,12.2-2.1L264.1,1l8.8,1.7L279,7l4.1,14.7,4.1,6.1L345,96.1l8.5,6.3,17.3,9.9L440.5,169Z" transform="translate(-10.9 0)"/></svg>