<svg id="Layer_1" data-name="Layer 1" xmlns="http://www.w3.org/2000/svg" viewBox="0 0 286.1 213.2"><defs><style>.cls-1{fill:#1dbafe;stroke:#fff;stroke-linecap:round;stroke-linejoin:round;stroke-width:2px;}</style></defs><title>Kilinochchi</title><path id="LKA2460" class="cls-1" d="M157.4,246.8l-2.3,1.6-3.7-6.9L154,240l2.6-3.8,2.9,2.3,1.2,2.1-.6,3-2.7,3.2Zm278.1-73.9-2.1,2.1-1,7.5-9.4,7.4-1.3,10.2,1.2,10.2-10.1-5.6-8.7-7.4-3.3-4.2-2.1.7-6.2,20.3-7.4,4-11.2.7-20.1-1-6,.2-7.5,19.4-11.7,1.1-11.9-2.2-12.1.2-34,4-11.5,15,1.2,12.4-11.7-1.4-8.4,6.3-9.3,4.8-15.2,1.3h-3.3l2.8-10.9V242l.9-3.8-.8-2.6-5.2-1-12.2-6.4-4.7-4.4-3.5-10-2.2-10.5-.2-6,5.3-5.6,9.8-4.9,10.9-3.4,8.9-1.4,4-2,9.7-13,2.8-2.1,3.2-2,4-1.4,5.1-.9-4.2-7.8-5.1-6.8-6.5-6.5-8.6-6.4-32.7-19.3-6.6-8.2,14.3.4,13.5,5.5L241.7,127l25.3,6.4,6.7,4.3,10.5,9.2,2.6,4.9-5.4,2.7,1.2,3.1,1.6,3-2.8,3.1,9.3,6.2,21.8-5.3,39.9-15.9,10.7,1,23.6,6.5,27.8,12.6,21,4.1Zm-76.4-58.6,5.6,17.1.8,4.5-5.4.3-3.5,1.3-1.4,2.4-1.8.9-5.8-4.4-2.4-.4-14.3.4-4.1-1.2-31.4-27.3-13.5-8.8L277,97l9.3-16.4,6-12.9,21.2,23.1,13.7,8.7,31.9,14.8Z" transform="translate(-150.4 -66.7)"/></svg>