<svg id="Layer_1" data-name="Layer 1" xmlns="http://www.w3.org/2000/svg" viewBox="0 0 340.7 321.9"><defs><style>.cls-1{fill:#1dbafe;stroke:#fff;stroke-linecap:round;stroke-linejoin:round;stroke-width:2px;}</style></defs><title>Mannar</title><path id="LKA2457" class="cls-1" d="M5.4,342.4l-4.4.2,5.5-3.5,7.9.5,1.4,1.6h-9l-1.4,1.2Zm106.5,6.2L127,363.2l-7.2-1.5-12.7-6.3-7.5-1.3,20.5,23.4,3.9,7.1-10.5-1.3-6.9-5.4-4.8-5.8-3.6-2.8L93.7,367,75.5,350.7l-18.1-8.1-10.1-2.7-9.7-1.1-4.9-1.9-2.2-4.3,1.4-4.3,5.7-2H57.4l17.7,4.6L94,338.1l17.9,10.5Zm136.7-82.1.5,15.2,2.7,14.6,8.2,13.1.9,3.1.5,3.3-.4,6.9-1.6,6.4,1,10.6-.7,9.1-9.7,3.3-2,4.5-1.4,4.9-2.4,5.1-1.5,5.2,2.1,4,2,3-5.6,16.1,72.9-3.9,12,5.6,6.9,11,6.7,17.2-2.3,15.6-23.7,8.8-24.9,3.1-16-1.8-12.4,6.9-6.5,15-11.4,1.1-1.7,6.6-.1,5.9,10.5,8,16.7,21.6-43,11.3H203.2l-19.6-8.1,3.5,26.2-.9,41.4-4.3-.5-3.6-1.8-11.8-6.6-11.3-4.8-13.1-1.3L130.5,567l-5.1-3,1.6-1.7,5.1-15.9,1-.9,1-4,4.1-9,3.9-43.5-10.7-27.7.9-4.9.8-32.1L132,413.8l-1.3-5.2-2.3-4-1.8-4.5,4.1-2.2,5.9-1.1,4-1.2,25.6-23.2,13.4-6.6,5.5-4.9,3-10.9,5.3-11.2,3-15.6,14.2-36.9,1.8-7.4h3.3l15.2-1.3,9.3-4.8,8.4-6.3Z" transform="translate(0 -265.5)"/></svg>