<svg id="Layer_1" data-name="Layer 1" xmlns="http://www.w3.org/2000/svg" viewBox="0 0 348.1 233.9"><defs><style>.cls-1{fill:#1dbafe;stroke:#fff;stroke-linecap:round;stroke-linejoin:round;stroke-width:2px;}</style></defs><title>Mullativu</title><path id="LKA2458" class="cls-1" d="M571.6,377.6l-7,3.1-8.5,2.4-7.6,4.6-8.5,2.4-20.4,2.7-17.4,8.1,8.1-30.3-5.3-7.2-14.1-8.6L477,352.7l-6.5,4.4-6.9,1.7.8-6.1,4.2-6.3-5.1-9.1L451.6,336,450,321.7l-13.7-5.3-14.4.4-1,2.2-.8,2.3-4.2,2.4-4.4,2.1-7.5,6.8-10.9,4.9-6.8-10.2-11.1-7.1-15.2.5-8.5-.5-8,.7-1.1,6.5,3.4,4.7,6.5,1.1.5,3.6-.1,4,1.6,7.7.6,7.5L347,368l-12.4,10-20.5,13-72.9,3.9,5.6-16.1-2-3-2.1-4,1.5-5.2,2.4-5.1,1.4-4.9,2-4.5,9.7-3.3.7-9.1-1-10.6,1.6-6.4.4-6.9-.5-3.3-.9-3.1-8.2-13.1-2.7-14.6-.5-15.2,11.7,1.4-1.2-12.4,11.5-15,34-4,12.1-.2,11.9,2.2,11.7-1.1,7.5-19.4,6-.2,20.1,1,11.2-.7,7.4-4,6.2-20.3,2.1-.7,3.3,4.2,8.7,7.4,10.1,5.6-1.2-10.2,1.3-10.2,9.4-7.4,1-7.5,2.1-2.1,2.3-1.6,2.7-2.3,52.3,42.6,3.5,6,5,6.2,9.5,9,6,7.8-5.4,2.9-3.4-1.6-4.7-6-2.5-1.3-8-1.3-3.5,1,2.3,4.7,22.9,21.5,9,4.9-3.5-5.5-2.2-5.1,1.1-3.7,6.1-1.5,2.9,2,4.7,13.8,4.2,8.6,16.8,33.7-12.7-4.8-5.8-.1-2.5,6.4,3.4,1.6,7.2,1.2,6.4,4.1,1,10.2h3l1.5-2.6,1.3-1.1,1.6-.7,2-1.4,2.5,10,6.2,14.3,8.4,12.9,8.5,5.6,1.7,1.3v3.2l-2.1,3.1-4.1,1.5-1.2-1.3-4.8-7.8-5.3-2.8-12.1-3.2-7.1-3.2,5.1,7,15.9,15v1.5Z" transform="translate(-240.2 -168)"/></svg>