<svg id="Layer_1" data-name="Layer 1" xmlns="http://www.w3.org/2000/svg" viewBox="0 0 271.6 261.2"><defs><style>.cls-1{fill:#1dbafe;stroke:#fff;stroke-linecap:round;stroke-linejoin:round;stroke-width:2px;}</style></defs><title>Vavuniya</title><path id="LKA2456" class="cls-1" d="M502.2,400.9l-3.6,6.4-2,7.8-12.2,2.3-11.6,3.3-12.8,9-32.9,1.2.9,9.8,11.5,4,8.1,10.5,3.7,11.6-10.5,8.4-6.2,7.6-5.4,8.2-9.6,11.3-11.2,10.1-11.8,9-14,.1-7.5-5.3-8.2-4.4L353.5,518l-17.4,22.7-8.3,19.2-7.8,3.5-6.8,12.2-4.3-.3-4.6-1.2-9.3-5-4.7-9.5-1.6-6.1-2.9-5.5-6.5-3-6.7-2.3-4.5-12.6-.2-14.5L251.2,494l-10.5-8,.1-5.9,1.7-6.6,11.4-1.1,6.5-15,12.4-6.9,16,1.8,24.9-3.1,23.7-8.8,2.3-15.6L333,407.6l-6.9-11-12-5.6,20.5-13L347,368l7.9-12-.6-7.5-1.6-7.7.1-4-.5-3.6-6.5-1.1-3.4-4.7,1.1-6.5,8-.7,8.5.5,15.2-.5,11.1,7.1,6.8,10.2,10.9-4.9,7.5-6.8,4.4-2.1,4.2-2.4.8-2.3,1-2.2,14.4-.4,13.7,5.3,1.6,14.3,11.9,1.3,5.1,9.1-4.2,6.3-.8,6.1,6.9-1.7,6.5-4.4,13.9,2.1,14.1,8.6,5.3,7.2-8.1,30.3Z" transform="translate(-239.7 -315.4)"/></svg>