<?xml version="1.0" encoding="utf-8"?>
<!-- Generator: Adobe Illustrator 23.0.5, SVG Export Plug-In . SVG Version: 6.00 Build 0)  -->
<svg version="1.1" id="Layer_1" xmlns="http://www.w3.org/2000/svg" xmlns:xlink="http://www.w3.org/1999/xlink" x="0px" y="0px"
	 viewBox="0 0 177.1 253" style="enable-background:new 0 0 177.1 253;" xml:space="preserve">
<style type="text/css">
	.st0{fill:#00618A;stroke:#FFFFFF;stroke-width:2;stroke-linecap:round;stroke-linejoin:round;}
</style>
<title>Kegalla</title>
<path id="LKA2469" class="st0" d="M121.4,17.7l5.4,13.6l19.1,16.8l-0.7,8.6l3.7,2.6l11.3,6.3l5.3,6.5l-1.1,7.9l0.1,6.6l6.4,6.3
	l5.2,6.5l-2.5,5.9l-3.5,5.4l-4.8,1.2l-4.8,0.3l-7,7.5l-15.3,2.5l-5,4.7l6.7,16l3.2,5.6l-3.2,6.8l-0.2,8.9l0.6,1.4l1.4,0.4l-3.9,6.3
	l-6.1,5.4l-3.4,1.1l-2.4,3.3l2.5,3.4l2.8,2.9l-3.1,16.6l3.8,12.8l12.9,4.2l10.2,7.6l3.4,11.7l0.7,6l-5.1,4.4l-8.8,0.3l-8.7-1.2
	l-12.2-4.1l-9.5-5.4l-6.7-0.3l-5.5,0.6l-13.4,7.6l-11.1-2.4l-2.1-4.4l-3.2-3.8l-4.5,1l-3.2,1.7l-6.7-5.3l-5.5-7l-18.3-18.6l-6.8,3.1
	l-0.3-4.4l-0.6-4.3l5.9-5.5l-1.4-8.1l-7.6-3.9l-9.6-0.6l1.4-3.7l-0.1-4l-6.6-21.2l2.3-12.9l5.6-13l6.4-4.4l3.3-7.6l-9.3-2.7
	l-10.8,2.5L1,108.6L2.9,96l7-3.7l5.8-5.4l1.1-15.3l4.4-3.4l-0.8-6l9-5.2l9.2-8.2l9.7-6.9L58.6,37l21.6-4.8l4.7-0.2l3.2-4.3l1.5-5.3
	l-0.5-9.1l1.5-8.5l9.7-3.8l10.6,1.4l6.4,6.7L121.4,17.7z"/>
</svg>
