<?xml version="1.0" encoding="utf-8"?>
<!-- Generator: Adobe Illustrator 23.0.5, SVG Export Plug-In . SVG Version: 6.00 Build 0)  -->
<svg version="1.1" id="Layer_1" xmlns="http://www.w3.org/2000/svg" xmlns:xlink="http://www.w3.org/1999/xlink" x="0px" y="0px"
	 viewBox="0 0 342.4 310" style="enable-background:new 0 0 342.4 310;" xml:space="preserve">
<style type="text/css">
	.st0{fill:#00618A;stroke:#FFFFFF;stroke-width:2;stroke-linecap:round;stroke-linejoin:round;}
</style>
<title>Ratnapura</title>
<path id="LKA2463" class="st0" d="M141.9,42.3l-0.3,7.3l3,3.3l-3.3,3.2l-1.6,4.5l9,7l10.8,0.9l22.9,5.1l24.3,3.3l9.3-1.5l11-0.9
	l14.6,0.5l13.8-1.9l25-13.1l1.2,16.4l3.3-1.6l3.2-1.3l6.1,6.6l7.6,2.4l-1.1,4.2l-1.4,3.4l-1.7,1.7l-11.9,5.5l-2.1,5.8l4.6,7.4
	l6.8,5.5l10.1,1.9l10.6-4.3l9-6.7l8.1-0.4l-7.3,11L321,129l-8.1,9.7l-4.2,9.9l-4.4,19.2l-8.3,11.9l-6.7,12.7l1.3,7.3l2.8,7l0.4,27.5
	l4.9,9.5l6.3,8.3l8.4,4.6l8.1,5.7l4.2,8.1l3.5,10.3l8.1,9.1l4.1,11.3l-2.2,7.9l-9.3-3.1l-16.2-3.3l-5.2-6l-6.7-5.3l-8.4,0.8
	l-8.4,2.1l-8.5-1.4L244.1,281l-25.3-4.8V272l2.4-2.4l-5.7-4.2l0.4-4.2l-5-6.1l-10.6,1.8l-7.9-1.4l2.9-8l-6.4-11.7l-19.4,2.5
	l-7.5,0.1l-3.1,7.2l-8.7,2l-8.6,1.2l-3.8-5.5l-7.1,0.3l-13.7-6.8l-6.6-0.2l-7.5-3l-6-5.1l-5.4-5.6l-15.9-27.8l-18.7-26.3l-2.3-7.6
	l6.6-2.5l-6.4-12.3l-9.8-9l-6.2-2.4l-4.9-4.6l-2.6-12.9l-13.5-13.1l-4.2-8.9l-2.9-8.4l0.7-7.1L3.6,59.6l-1.4-9.2l9.7-8.7L1,30.1
	l2.3-5.3l1.9-6.2L10,11l5.7-6.9L22.5,1l18.3,18.6l5.5,7l6.7,5.3l3.2-1.7l4.5-1l3.2,3.8l2.1,4.4l11.1,2.4l13.4-7.6l5.5-0.6l6.7,0.3
	l9.5,5.4l12.2,4.1l8.7,1.2L141.9,42.3L141.9,42.3z"/>
</svg>
