<?xml version="1.0" encoding="utf-8"?>
<!-- Generator: Adobe Illustrator 23.0.5, SVG Export Plug-In . SVG Version: 6.00 Build 0)  -->
<svg version="1.1" id="Layer_1" xmlns="http://www.w3.org/2000/svg" xmlns:xlink="http://www.w3.org/1999/xlink" x="0px" y="0px"
	 viewBox="0 0 430.6 173.9" style="enable-background:new 0 0 430.6 173.9;" xml:space="preserve">
<style type="text/css">
	.st0{fill:#00618A;stroke:#FFFFFF;stroke-width:2;stroke-linecap:round;stroke-linejoin:round;}
</style>
<title>Jaffna</title>
<path id="LKA2459" class="st0" d="M27,155.5l-11.2,0.6l-10.3-3.4L1,147v-18.4l1.3-4.7l2.9,0.6l3,3.8l1.8,4.8l7.6,2.4l9.1,0.7
	l2.3,1.6l5.1,10.9L27,155.5z M76.5,104.3l3.2,2.7l3.6-0.3l1.9-1.6l-2.6-4.5l0.2-2.5h3.8l4.4,3.4l1.7,6.1l-1.2,9.4l-1.3,2.2l-4,0.5
	l-14.5-2.8l-2.9-4.1l0.6-16.7l1.7-2.4l2.3,2.4C73.4,96.1,76.5,104.3,76.5,104.3z M110.1,68.6L112,69l8.5-0.4l1.5,1.3l0.6,6.7
	l1.1,2.8l5,3.2l6.9,2.9l5.7,3.3l2,4.2l-3.1,3.2h-5.8l-6.3-1.9l-4.4-2.8l-3.1-0.8l-8,4.7l-5.6,0.7l-6.8-5l-6.8-10.3L82.6,59.4
	l4.9-7.7l1.1-9.8l2.8-8l9.6-2.1l5.2,1.6l0.5,3.8l-1.8,5.2l-1.2,6.1l0.2,6.2l0.7,5.2l1.9,4.5C106.5,64.4,110.1,68.6,110.1,68.6z
	 M281.4,67.7l-6,12.9L266.1,97l-22.7-10l-8.2-4.8l-5.5-0.1l1.1,10.9l3,3.2l4.8,3.7l2.8,4.4l-2.8,5.7l-3.4,1.1l-3.2-1.8l-3-2.5
	l-8.5-4.4L204,87.9l-9.4-4.1l4.8,5.4l8.7,7.6l4.8,5.4l-10.7-2.1l-10.6-4.4l-21.2-11.9l-16.9-13.4l-10.1-3.5l-4.8-3.1l-3.6-1.5
	l-0.5,3.2l-4.9-3.3l-1.8-4.4l-0.9-5.1l-1.7-5.9l-2.9-4.9l-6.3-8.3l-2.9-5.1l9.6-4.8l17.4-16.2l7.8-3.5l34.6,3l18-2l6.6,0.8l2.6,6
	l-0.5,9.4l1.3,3.2l3.8,1.3l3.7,0.5l10.5,2.7l2.3,1.2l1.9,4l4.8-0.2l5.2-1.6l3.6-0.5l4.9,2.9L281.4,67.7L281.4,67.7z M429.6,169
	l-2.7,2.3l-2.3,1.6l-30.1-20.7l-10.3-4.9l-9.2-2l-2.7-1.2l-8-6.1l-3-1.8l-3-0.5l-3.7,0.2l-0.8-4.5l-5.6-17.1l1,0.5v-3.4l-16.1-8.1
	l-38.8-32l-31.8-36.9l-16.2-8.7l-25.3-6l-6.7-4.9L213.4,8l9.3-4l12.2-2.1L253.2,1l8.8,1.7l6.1,4.3l4.1,14.7l4.1,6.1l57.8,68.3
	l8.5,6.3l17.3,9.9L429.6,169z"/>
</svg>
