<?xml version="1.0" encoding="utf-8"?>
<!-- Generator: Adobe Illustrator 23.0.5, SVG Export Plug-In . SVG Version: 6.00 Build 0)  -->
<svg version="1.1" id="Layer_1" xmlns="http://www.w3.org/2000/svg" xmlns:xlink="http://www.w3.org/1999/xlink" x="0px" y="0px"
	 viewBox="0 0 286.1 213.2" style="enable-background:new 0 0 286.1 213.2;" xml:space="preserve">
<style type="text/css">
	.st0{fill:#00618A;stroke:#FFFFFF;stroke-width:2;stroke-linecap:round;stroke-linejoin:round;}
</style>
<title>Kilinochchi</title>
<path id="LKA2460" class="st0" d="M7,180.1l-2.3,1.6L1,174.8l2.6-1.5l2.6-3.8l2.9,2.3l1.2,2.1l-0.6,3L7,180.1z M285.1,106.2
	l-2.1,2.1l-1,7.5l-9.4,7.4l-1.3,10.2l1.2,10.2l-10.1-5.6l-8.7-7.4l-3.3-4.2l-2.1,0.7l-6.2,20.3l-7.4,4l-11.2,0.7l-20.1-1l-6,0.2
	l-7.5,19.4l-11.7,1.1l-11.9-2.2l-12.1,0.2l-34,4l-11.5,15l1.2,12.4l-11.7-1.4l-8.4,6.3l-9.3,4.8l-15.2,1.3H62l2.8-10.9v-26l0.9-3.8
	l-0.8-2.6l-5.2-1l-12.2-6.4l-4.7-4.4l-3.5-10l-2.2-10.5l-0.2-6l5.3-5.6l9.8-4.9l10.9-3.4l8.9-1.4l4-2l9.7-13l2.8-2.1l3.2-2l4-1.4
	l5.1-0.9l-4.2-7.8l-5.1-6.8l-6.5-6.5l-8.6-6.4L43.5,47.1l-6.6-8.2l14.3,0.4l13.5,5.5l26.6,15.5l25.3,6.4l6.7,4.3l10.5,9.2l2.6,4.9
	l-5.4,2.7l1.2,3.1l1.6,3L131,97l9.3,6.2l21.8-5.3L202,82l10.7,1l23.6,6.5l27.8,12.6L285.1,106.2L285.1,106.2z M208.7,47.6l5.6,17.1
	l0.8,4.5l-5.4,0.3l-3.5,1.3l-1.4,2.4l-1.8,0.9l-5.8-4.4l-2.4-0.4l-14.3,0.4l-4.1-1.2L145,41.2l-13.5-8.8l-4.9-2.1l9.3-16.4l6-12.9
	l21.2,23.1l13.7,8.7L208.7,47.6z"/>
</svg>
