<?xml version="1.0" encoding="utf-8"?>
<!-- Generator: Adobe Illustrator 23.0.5, SVG Export Plug-In . SVG Version: 6.00 Build 0)  -->
<svg version="1.1" id="Layer_1" xmlns="http://www.w3.org/2000/svg" xmlns:xlink="http://www.w3.org/1999/xlink" x="0px" y="0px"
	 viewBox="0 0 340.7 321.9" style="enable-background:new 0 0 340.7 321.9;" xml:space="preserve">
<style type="text/css">
	.st0{fill:#00618A;stroke:#FFFFFF;stroke-width:2;stroke-linecap:round;stroke-linejoin:round;}
</style>
<title>Mannar</title>
<path id="LKA2457" class="st0" d="M5.4,76.9L1,77.1l5.5-3.5l7.9,0.5l1.4,1.6h-9L5.4,76.9L5.4,76.9z M111.9,83.1L127,97.7l-7.2-1.5
	l-12.7-6.3l-7.5-1.3l20.5,23.4l3.9,7.1l-10.5-1.3l-6.9-5.4l-4.8-5.8l-3.6-2.8l-4.5-2.3L75.5,85.2l-18.1-8.1l-10.1-2.7l-9.7-1.1
	l-4.9-1.9l-2.2-4.3l1.4-4.3l5.7-2h19.8l17.7,4.6L94,72.6L111.9,83.1z M248.6,1l0.5,15.2l2.7,14.6l8.2,13.1l0.9,3.1l0.5,3.3l-0.4,6.9
	l-1.6,6.4l1,10.6l-0.7,9.1l-9.7,3.3l-2,4.5l-1.4,4.9l-2.4,5.1l-1.5,5.2l2.1,4l2,3l-5.6,16.1l72.9-3.9l12,5.6l6.9,11l6.7,17.2
	l-2.3,15.6l-23.7,8.8l-24.9,3.1l-16-1.8l-12.4,6.9l-6.5,15l-11.4,1.1l-1.7,6.6l-0.1,5.9l10.5,8l16.7,21.6l-43,11.3h-21.7l-19.6-8.1
	l3.5,26.2l-0.9,41.4l-4.3-0.5l-3.6-1.8l-11.8-6.6l-11.3-4.8l-13.1-1.3l-11.6-4.4l-5.1-3l1.6-1.7l5.1-15.9l1-0.9l1-4l4.1-9l3.9-43.5
	l-10.7-27.7l0.9-4.9l0.8-32.1l-1.1-10.5l-1.3-5.2l-2.3-4l-1.8-4.5l4.1-2.2l5.9-1.1l4-1.2l25.6-23.2l13.4-6.6l5.5-4.9l3-10.9
	l5.3-11.2l3-15.6l14.2-36.9l1.8-7.4h3.3l15.2-1.3l9.3-4.8L248.6,1L248.6,1z"/>
</svg>
