<?xml version="1.0" encoding="utf-8"?>
<!-- Generator: Adobe Illustrator 23.0.5, SVG Export Plug-In . SVG Version: 6.00 Build 0)  -->
<svg version="1.1" id="Layer_1" xmlns="http://www.w3.org/2000/svg" xmlns:xlink="http://www.w3.org/1999/xlink" x="0px" y="0px"
	 viewBox="0 0 348.1 233.9" style="enable-background:new 0 0 348.1 233.9;" xml:space="preserve">
<style type="text/css">
	.st0{fill:#00618A;stroke:#FFFFFF;stroke-width:2;stroke-linecap:round;stroke-linejoin:round;}
</style>
<title>Mullativu</title>
<path id="LKA2458" class="st0" d="M331.4,209.6l-7,3.1l-8.5,2.4l-7.6,4.6l-8.5,2.4l-20.4,2.7l-17.4,8.1l8.1-30.3l-5.3-7.2l-14.1-8.6
	l-13.9-2.1l-6.5,4.4l-6.9,1.7l0.8-6.1l4.2-6.3l-5.1-9.1l-11.9-1.3l-1.6-14.3l-13.7-5.3l-14.4,0.4l-1,2.2l-0.8,2.3l-4.2,2.4l-4.4,2.1
	l-7.5,6.8l-10.9,4.9l-6.8-10.2l-11.1-7.1l-15.2,0.5l-8.5-0.5l-8,0.7l-1.1,6.5l3.4,4.7l6.5,1.1l0.5,3.6l-0.1,4l1.6,7.7l0.6,7.5
	l-7.9,12l-12.4,10l-20.5,13L1,226.9l5.6-16.1l-2-3l-2.1-4l1.5-5.2l2.4-5.1l1.4-4.9l2-4.5l9.7-3.3l0.7-9.1l-1-10.6l1.6-6.4l0.4-6.9
	l-0.5-3.3l-0.9-3.1l-8.2-13.1l-2.7-14.6L8.4,98.5l11.7,1.4l-1.2-12.4l11.5-15l34-4l12.1-0.2l11.9,2.2l11.7-1.1l7.5-19.4l6-0.2
	l20.1,1l11.2-0.7l7.4-4l6.2-20.3l2.1-0.7l3.3,4.2l8.7,7.4l10.1,5.6l-1.2-10.2l1.3-10.2l9.4-7.4l1-7.5l2.1-2.1l2.3-1.6l2.7-2.3
	l52.3,42.6l3.5,6l5,6.2l9.5,9l6,7.8l-5.4,2.9l-3.4-1.6l-4.7-6l-2.5-1.3l-8-1.3l-3.5,1l2.3,4.7l22.9,21.5l9,4.9l-3.5-5.5l-2.2-5.1
	l1.1-3.7l6.1-1.5l2.9,2l4.7,13.8l4.2,8.6l16.8,33.7l-12.7-4.8l-5.8-0.1l-2.5,6.4l3.4,1.6l7.2,1.2l6.4,4.1l1,10.2h3l1.5-2.6l1.3-1.1
	l1.6-0.7l2-1.4l2.5,10l6.2,14.3l8.4,12.9l8.5,5.6l1.7,1.3v3.2l-2.1,3.1l-4.1,1.5l-1.2-1.3l-4.8-7.8l-5.3-2.8l-12.1-3.2l-7.1-3.2
	l5.1,7l15.9,15L331.4,209.6L331.4,209.6z"/>
</svg>
