<?xml version="1.0" encoding="utf-8"?>
<!-- Generator: Adobe Illustrator 23.0.5, SVG Export Plug-In . SVG Version: 6.00 Build 0)  -->
<svg version="1.1" id="Layer_1" xmlns="http://www.w3.org/2000/svg" xmlns:xlink="http://www.w3.org/1999/xlink" x="0px" y="0px"
	 viewBox="0 0 271.6 261.2" style="enable-background:new 0 0 271.6 261.2;" xml:space="preserve">
<style type="text/css">
	.st0{fill:#00618A;stroke:#FFFFFF;stroke-width:2;stroke-linecap:round;stroke-linejoin:round;}
</style>
<title>Vavuniya</title>
<path id="LKA2456" class="st0" d="M262.5,85.5l-3.6,6.4l-2,7.8l-12.2,2.3l-11.6,3.3l-12.8,9l-32.9,1.2l0.9,9.8l11.5,4l8.1,10.5
	l3.7,11.6l-10.5,8.4l-6.2,7.6l-5.4,8.2l-9.6,11.3L168.7,197l-11.8,9l-14,0.1l-7.5-5.3l-8.2-4.4l-13.4,6.2l-17.4,22.7l-8.3,19.2
	l-7.8,3.5l-6.8,12.2l-4.3-0.3l-4.6-1.2l-9.3-5l-4.7-9.5l-1.6-6.1l-2.9-5.5l-6.5-3l-6.7-2.3l-4.5-12.6l-0.2-14.5l-16.7-21.6l-10.5-8
	l0.1-5.9l1.7-6.6l11.4-1.1l6.5-15l12.4-6.9l16,1.8l24.9-3.1l23.7-8.8l2.3-15.6l-6.7-17.2l-6.9-11l-12-5.6l20.5-13l12.4-10l7.9-12
	l-0.6-7.5l-1.6-7.7l0.1-4l-0.5-3.6l-6.5-1.1l-3.4-4.7l1.1-6.5l8-0.7l8.5,0.5l15.2-0.5l11.1,7.1l6.8,10.2l10.9-4.9l7.5-6.8l4.4-2.1
	l4.2-2.4l0.8-2.3l1-2.2L196.6,1l13.7,5.3l1.6,14.3l11.9,1.3l5.1,9.1l-4.2,6.3l-0.8,6.1l6.9-1.7l6.5-4.4l13.9,2.1l14.1,8.6l5.3,7.2
	L262.5,85.5L262.5,85.5z"/>
</svg>
